<svg width="1920" height="1080" viewBox="0 0 1920 1080" fill="none" xmlns="http://www.w3.org/2000/svg">
<g clip-path="url(#clip0_3837_308927)">
<path d="M1920 0H0V1204.89H1920V0Z" fill="black"/>
<path d="M1920 0H0V1217.54H1920V0Z" fill="#EFE9FF"/>
<path opacity="0.66" d="M1920.1 -0.28125H0V546.469H1920.1V-0.28125Z" fill="url(#paint0_linear_3837_308927)"/>
<path opacity="0.58" d="M-5.70703 1140.49V701.884C-5.70703 701.884 269.376 706.368 473.913 673.576C626.74 649.077 839.332 630.271 1092.98 498.78C1450.6 313.386 1916.01 335.468 1916.01 335.468V1140.5H-5.70703V1140.49Z" fill="url(#paint1_linear_3837_308927)"/>
<path d="M-5.70703 1140.49V701.884C-5.70703 701.884 269.376 706.368 473.913 673.576C626.74 649.077 839.332 630.271 1092.98 498.78C1450.6 313.386 1916.01 335.468 1916.01 335.468V1140.5H-5.70703V1140.49Z" fill="url(#paint2_linear_3837_308927)"/>
<path d="M1064.43 1140.49H1916.01V335.452C1916.01 335.452 1679.51 324.222 1414.33 385.111C1468.49 389.215 1541.5 402.779 1560.78 445.381C1592.42 515.336 1464.63 573.653 1363.02 635.287C1261.42 696.907 1069.42 835.13 1067.76 1011.68C1067.29 1061.71 1066.02 1104.65 1064.43 1140.5V1140.49Z" fill="url(#paint3_linear_3837_308927)"/>
<path d="M1064.43 1140.49H1916.01V335.452C1916.01 335.452 1679.51 324.222 1414.33 385.111C1468.49 389.215 1541.5 402.779 1560.78 445.381C1592.42 515.336 1464.63 573.653 1363.02 635.287C1261.42 696.907 1069.42 835.13 1067.76 1011.68C1067.29 1061.71 1066.02 1104.65 1064.43 1140.5V1140.49Z" fill="url(#paint4_radial_3837_308927)"/>
<path d="M1916.01 1221.76V966.706C1916.01 966.706 1602.13 1016.67 1372.08 1015C1047 1012.65 768.463 810.632 345.023 768.985C189.062 753.65 -3.99219 765.176 -3.99219 765.176V1221.76H1916.01Z" fill="url(#paint5_linear_3837_308927)"/>
<path d="M1916.01 1204.89V966.706C1916.01 966.706 1602.13 1016.67 1372.08 1015C1047 1012.65 768.463 810.632 345.023 768.985C189.062 753.65 -3.99219 765.176 -3.99219 765.176V1204.89H1916.01Z" fill="url(#paint6_linear_3837_308927)"/>
<path d="M1916.11 605.463H-3.99219V1209.11H1916.11V605.463Z" fill="url(#paint7_linear_3837_308927)"/>
<path d="M245.778 669.864C244.752 669.4 243.037 670.215 238.89 670.103C233.057 669.948 221.461 667.052 218.608 663.398C218.313 663.018 218.777 662.822 220.773 661.486C226.015 657.987 231.258 656.525 235.728 655.864C238.694 655.428 241.013 655.555 243.641 654.163C245.173 653.348 245.974 652.378 246.143 651.788C246.298 651.268 246.424 650.706 245.862 650.27C245.173 649.75 242.995 649.258 241.097 648.134C239.073 646.939 237.907 645.505 235.7 643.537C232.453 640.656 227.73 640.839 226.03 639.278C223.935 637.367 217.09 631.885 214.644 633.305C214.504 633.389 214.405 633.516 214.335 633.684C213.464 635.666 215.755 641.485 215.333 642.652C215.249 642.877 215.108 643.045 214.897 643.186C213.239 644.324 208.994 647.164 206.45 648.471C205.354 649.033 203.302 649.413 200.743 649.652C195.135 650.186 187.123 650.017 181.754 649.427C173.265 648.471 169.076 646.714 162.793 646.63C148.625 646.447 149.089 646.067 138.547 643.383C137.858 643.172 137.128 642.961 136.369 642.75C132.588 641.71 128.118 640.712 122.65 639.953C111.771 638.281 101.679 638.252 92.8383 638.829C91.6295 638.913 90.505 638.983 89.4509 639.054C86.9349 639.208 84.433 639.419 81.9452 639.658C80.7223 639.77 79.6119 639.883 78.5718 640.009C41.9006 644.015 10.8939 654.74 7.29566 640.825C1.6453 618.94 55.633 611.083 68.4377 556.519C70.6444 547.116 68.3955 538.5 66.8635 534.199C66.5542 533.327 65.3033 533.411 65.1065 534.311C64.7551 535.899 64.3053 537.783 63.8696 539.048C63.0403 541.409 60.9179 545.007 60.6228 543.546C49.8983 491.385 -0.659827 472.129 -43.642 481.954C-70.5304 488.096 -84.9374 502.096 -108.185 514.436C-116.028 518.597 -124.054 521.38 -127.681 522.546C-128.468 522.799 -128.538 523.91 -127.779 524.247C-126.233 524.95 -123.703 525.765 -119.992 526.018C-115.677 526.313 -109.127 525.091 -111.011 526.187C-122.677 532.948 -133.036 539.329 -144.857 542.744C-160.908 547.383 -171.098 546.624 -175.99 545.654C-176.903 545.471 -177.48 546.61 -176.777 547.228C-169.37 553.891 -146.824 571.179 -114.904 568.438C-93.5957 566.611 -83.8411 564.193 -63.7275 556.266C-45.5535 549.098 -30.3172 554.439 -37.6262 568.452C-43.7825 580.245 -56.6153 583.815 -70.4461 603.521C-70.7412 603.943 -69.5887 599.375 -68.7032 596.029C-68.4642 595.102 -69.6168 594.469 -70.2633 595.186C-76.5603 602.115 -92.401 622.552 -86.9614 647.642C-76.996 693.674 5.97442 707.181 92.5009 666.729C105.587 661.88 113.613 658.605 123.17 657.115C132.307 655.71 137.802 655.372 141.162 655.471C142.3 655.541 146.208 655.78 146.643 656.834C146.882 657.41 146.264 657.72 141.752 660.25C137.423 662.681 134.19 661.529 131.056 663.033C129.341 663.862 128.202 665.169 125.391 666.476C118.729 669.554 118.054 668.149 116.269 669.119C115.271 669.653 115.06 670.566 115.819 671.241C117.942 673.125 126.052 671.339 128.933 670.552C134.007 669.147 137.732 669.934 142.876 669.99C146.376 670.032 149.679 669.681 153.516 668.669C157.888 667.516 163.608 667.502 168.12 667.938C175.387 668.641 185.085 671.635 197.511 672.239C199.605 672.337 211.96 671.972 216.345 672.998C223.64 675.036 226.55 674.024 232.762 674.347C235.236 674.474 240.957 674.741 243.332 674.122C246.593 673.265 247.563 670.693 245.792 669.892L245.778 669.864Z" fill="url(#paint8_linear_3837_308927)"/>
<path d="M226.043 639.278C226.394 639.602 226.985 640.052 228.461 640.389C229.374 640.6 230.232 640.839 231.047 641.106C230.934 640.993 230.836 640.867 230.724 640.74C228.84 638.548 226.647 636.313 225.242 635.118C223.668 633.797 221.489 632.504 220.491 633.108C220.126 633.319 220.112 634.036 220.182 634.851C222.009 635.947 224.047 637.479 226.029 639.278H226.043Z" fill="url(#paint9_linear_3837_308927)"/>
<path d="M153.498 668.627C147.328 670.258 143.027 670.019 139.077 669.808C137.967 670.483 136.561 670.567 135.338 671.27C130.658 673.954 130.306 677.328 126.371 678.846C121.859 680.575 125.021 683.372 128.043 682.388C132.682 680.884 136.027 677.075 139.625 675.599C141.734 674.742 147.679 672.633 153.315 670.947C157.996 669.541 163.464 668.248 165.839 667.714C160.259 667.39 155.986 667.967 153.498 668.613V668.627Z" fill="url(#paint10_linear_3837_308927)"/>
<path d="M194.19 663.232C194.19 663.232 201.963 659.69 214.556 668.32C216.566 669.697 229.132 675.01 232.281 676.458C239.168 679.803 241.051 678.229 242.316 679.55C244.158 681.096 240.967 683.851 234.867 682.066C232.913 681.49 223.819 679.03 220.137 677.596C212.322 674.546 206.756 671.96 204.183 670.878C202.792 670.287 194.176 663.217 194.176 663.217L194.19 663.232Z" fill="url(#paint11_linear_3837_308927)"/>
<path d="M92.5018 666.717C105.588 661.868 113.613 658.593 123.171 657.103C132.307 655.697 137.803 655.36 141.162 655.458C142.315 655.529 146.49 655.796 146.672 656.934C146.7 657.089 146.644 657.258 146.504 657.37C145.463 658.213 143.186 659.45 142.203 659.984C136.707 662.936 134.472 661.362 131.056 663.006C129.342 663.836 128.203 665.143 125.392 666.45C118.73 669.528 118.055 668.123 116.27 669.092C115.272 669.626 115.061 670.54 115.82 671.215C117.268 672.508 120.796 671.974 122.75 671.777C128.526 671.215 129.187 669.711 135.287 669.683C140.502 669.655 145.323 670.793 153.517 668.629C163.398 666.014 175.205 669.106 181.91 670.273C187.167 671.187 192.887 671.974 197.511 672.185C201.447 672.367 200.716 672.058 207.35 672.241C222.137 672.648 214.041 674.335 229.6 674.237C230.57 674.237 231.61 674.237 232.763 674.307C235.237 674.434 240.972 674.701 243.333 674.082C244.261 673.829 245.315 673.295 245.989 672.62C247.184 671.397 246.819 669.584 244.64 669.725C242.728 669.851 239.664 670.709 232.665 669.373C228.94 668.671 220.802 666.183 218.623 663.386C218.328 663.006 218.792 662.809 220.788 661.474C226.03 657.974 231.273 656.513 235.743 655.852C238.652 655.416 239.763 655.571 241.885 654.896C243.361 654.432 245.75 653.224 246.172 651.776C246.327 651.256 246.453 650.694 245.891 650.258C245.315 649.822 243.333 649.26 242.054 648.627C241.731 648.459 241.421 648.304 241.126 648.121C236.53 645.395 236.938 642.33 228.49 640.391C227.014 640.053 226.424 639.59 226.073 639.28C223.964 637.355 217.119 631.887 214.687 633.307C214.547 633.391 214.449 633.518 214.378 633.686C213.507 635.682 215.798 641.487 215.376 642.654C215.292 642.879 215.151 643.047 214.94 643.188C206.648 648.88 205.776 649.19 200.786 649.653C195.206 650.188 187.181 650.019 181.797 649.429C173.308 648.459 169.119 646.716 162.836 646.631C147.249 646.435 149.048 646.224 136.426 642.752C132.645 641.712 128.175 640.714 122.707 639.955C108.118 637.706 93.5982 638.325 78.6289 640.011L92.544 666.717H92.5018Z" fill="url(#paint12_linear_3837_308927)"/>
<path d="M78.5851 640.009C93.5544 638.323 108.088 637.704 122.664 639.953C128.131 640.712 132.601 641.71 136.382 642.75C149.018 646.236 147.205 646.433 162.792 646.63C169.075 646.714 173.264 648.457 181.754 649.427C187.137 650.017 195.149 650.186 200.743 649.652C205.732 649.174 206.604 648.864 214.897 643.186C215.108 643.045 215.248 642.877 215.332 642.652C215.754 641.485 213.463 635.68 214.334 633.684C214.419 633.502 214.517 633.375 214.644 633.305C217.089 631.899 223.92 637.353 226.029 639.279C226.38 639.602 226.971 640.052 228.446 640.389C236.908 642.329 236.486 645.393 241.082 648.12C241.378 648.288 241.673 648.457 242.01 648.626C243.289 649.258 245.285 649.82 245.847 650.256C246.409 650.692 246.283 651.254 246.128 651.774C245.693 653.222 243.303 654.416 241.841 654.894C239.719 655.569 238.623 655.428 235.699 655.85C231.229 656.511 225.987 657.973 220.744 661.472C218.748 662.808 218.284 662.99 218.579 663.384C220.758 666.181 228.896 668.669 232.621 669.372C239.621 670.707 242.685 669.85 244.596 669.723C246.775 669.583 247.126 671.396 245.946 672.619C245.285 673.293 244.231 673.841 243.289 674.08C240.914 674.713 235.179 674.432 232.719 674.305C231.567 674.249 230.541 674.235 229.557 674.235C213.997 674.333 222.093 672.647 207.307 672.239C200.658 672.056 201.389 672.38 197.468 672.183C192.857 671.958 187.123 671.185 181.866 670.271C175.161 669.105 163.341 666.012 153.474 668.627C145.279 670.791 140.458 669.653 135.243 669.681C129.143 669.709 128.469 671.213 122.706 671.775C120.752 671.972 117.224 672.492 115.776 671.213C115.017 670.538 115.242 669.625 116.226 669.091C118.011 668.121 118.686 669.526 125.348 666.448C128.159 665.155 129.298 663.834 131.013 663.004C134.428 661.36 136.663 662.934 142.159 659.983C143.157 659.448 145.434 658.212 146.46 657.368C146.6 657.256 146.657 657.101 146.628 656.932C146.432 655.794 142.257 655.527 141.119 655.457C137.773 655.358 132.264 655.682 123.127 657.101C113.57 658.577 105.544 661.852 92.458 666.715L78.543 640.009H78.5851Z" fill="url(#paint13_radial_3837_308927)"/>
<path opacity="0.8" d="M162.793 646.643C169.076 646.728 173.265 648.471 181.754 649.44C187.138 650.031 195.149 650.199 200.744 649.665C205.733 649.187 206.605 648.878 214.898 643.2C215.108 643.059 215.249 642.89 215.333 642.666C215.755 641.499 213.464 635.694 214.335 633.698C214.42 633.515 214.518 633.389 214.645 633.319C217.09 631.913 223.921 637.367 226.03 639.292C226.381 639.616 226.971 640.065 228.447 640.403C236.909 642.342 236.487 645.406 241.083 648.133C241.378 648.302 241.674 648.471 242.011 648.639C243.29 649.272 245.286 649.834 245.848 650.27C246.41 650.705 246.284 651.268 246.129 651.788C245.693 653.235 243.304 654.43 241.842 654.908C239.72 655.583 238.623 655.442 235.7 655.864C231.23 656.524 225.987 657.986 220.745 661.486C218.749 662.821 218.285 663.004 218.58 663.398C220.759 666.195 228.897 668.683 232.622 669.385C239.621 670.721 242.686 669.863 244.597 669.737C246.776 669.596 247.127 671.409 245.946 672.632C245.286 673.307 244.232 673.855 243.29 674.094C240.915 674.727 235.18 674.445 232.72 674.319C231.568 674.263 230.541 674.249 229.558 674.249C213.998 674.347 222.094 672.66 207.308 672.253C200.659 672.07 201.39 672.393 197.469 672.196C192.858 671.972 187.124 671.199 181.867 670.285C175.162 669.118 163.341 666.026 153.474 668.64C145.28 670.805 140.459 669.666 135.244 669.695C129.144 669.723 128.469 671.227 122.707 671.789C120.753 671.986 117.225 672.506 115.777 671.227C115.018 670.552 115.243 669.638 116.227 669.104C118.012 668.134 118.687 669.54 125.349 666.462C128.16 665.169 129.299 663.847 131.014 663.018C134.429 661.374 136.664 662.948 142.16 659.996C143.158 659.462 145.435 658.225 146.461 657.382C146.601 657.269 146.657 657.115 146.629 656.946C146.433 655.808 142.258 655.541 141.12 655.47" fill="url(#paint14_linear_3837_308927)"/>
<path d="M146.359 669.85C148.804 668.627 150.154 667.011 150.154 667.011C150.154 667.011 147.314 666.87 144.602 666.87C143.744 666.87 140.497 666.744 140.497 666.744C140.497 666.744 143.772 664.916 144.602 664.298C145.262 663.806 147.989 661.866 147.989 661.866C147.989 661.866 143.491 662.78 142.578 662.949C141.509 663.145 138.487 663.694 138.487 663.694C138.487 663.694 139.71 661.965 140.554 660.826C137.363 662.218 134.692 661.866 132.429 662.499C129.703 663.272 128.93 664.818 125.402 666.448C122.689 667.699 120.834 668.472 117.966 668.655C114.256 668.88 114.171 672.478 120.032 672.014C124.488 671.663 125.022 671.607 128.944 670.525C135.17 668.796 139.57 670.37 146.359 669.864C146.359 669.864 146.359 669.864 146.373 669.864L146.359 669.85Z" fill="url(#paint15_linear_3837_308927)"/>
<path d="M233.266 647.94C233.42 649.387 234.179 649.247 234.728 649.275C235.726 649.303 236.133 648.938 236.007 647.996C235.796 646.323 234.756 645.775 234.109 646.07C233.645 646.281 233.139 646.66 233.266 647.94Z" fill="url(#paint16_linear_3837_308927)"/>
<path d="M235.347 648.046C235.547 648.015 235.672 647.754 235.627 647.462C235.583 647.171 235.385 646.959 235.185 646.99C234.986 647.02 234.86 647.281 234.905 647.573C234.95 647.864 235.148 648.076 235.347 648.046Z" fill="white"/>
<path d="M232.648 669.357C228.67 668.598 225.367 667.404 222.95 666.223C220.715 665.886 218.789 665.562 217.777 665.281C217.89 665.352 221.98 668.261 223.765 668.556C222.092 668.978 218.944 667.727 215.711 668.261C219.675 669.962 220.701 670.229 224.496 671.086C220.771 671.648 218.381 671.128 215.964 671.283L222.148 674.108C225.831 674.502 228.53 674.08 232.746 674.291C237.427 674.53 241.433 674.558 243.316 674.066C245.186 673.574 247.505 671.901 246.324 670.285C245.031 668.57 242.81 671.269 232.648 669.343V669.357Z" fill="url(#paint17_linear_3837_308927)"/>
<path opacity="0.6" d="M237.991 652.576C237.991 652.576 238.089 652.576 238.131 652.576C236.388 652.548 234.055 652.098 231.286 650.608C229.22 649.497 227.252 648.57 225.06 648.092C218.355 646.658 215.066 647.698 215.544 648.809C215.853 649.54 217.638 649.441 217.231 649.933C216.949 650.285 214.181 649.849 214.602 651.015C215.024 652.182 217.202 651.943 217.09 652.393C216.978 652.829 215.136 652.309 215.403 653.292C215.642 654.15 218.186 653.827 220.14 654.754C224.975 657.045 218.172 659.899 217.933 661.796C217.807 662.794 217.933 663.469 218.074 663.876C218.116 663.342 218.777 662.794 220.744 661.473C227.196 657.172 233.662 655.949 238.651 655.499C239.256 655.443 239.818 655.359 240.338 655.246C238.75 653.883 237.752 652.59 237.963 652.576H237.991Z" fill="url(#paint18_linear_3837_308927)"/>
<path d="M240.364 655.275C244.075 654.544 245.86 652.689 246.127 651.775C246.282 651.255 246.408 650.693 245.846 650.257C245.453 649.962 244.412 649.597 243.386 649.203C243.386 649.611 243.302 650.018 243.007 650.398C241.517 652.38 239.619 652.45 238.13 652.562C238.087 652.562 238.031 652.562 237.989 652.562C237.778 652.576 238.776 653.87 240.364 655.233V655.275Z" fill="#FFC635"/>
<path d="M246.116 651.86C246.116 651.86 246.144 651.803 246.144 651.775C246.299 651.255 246.425 650.693 245.863 650.257C245.694 650.131 245.413 650.004 245.076 649.85C244.963 650.117 244.907 650.454 244.963 650.932C245.034 651.564 245.638 651.789 246.116 651.86Z" fill="#00073A"/>
<path d="M214.911 643.187C214.377 643.552 213.589 644.087 212.676 644.691C214.264 643.82 217.469 642.316 221.264 641.852C224.595 641.458 227.996 641.022 229.95 640.755C229.472 640.615 228.98 640.488 228.474 640.376C226.998 640.039 226.408 639.575 226.057 639.266C221.404 635.035 216.415 632.28 214.672 633.292C213.589 633.91 214.475 637.958 215.248 641.022C215.543 642.217 215.473 642.793 214.911 643.173V643.187Z" fill="url(#paint19_linear_3837_308927)"/>
<path opacity="0.6" d="M194.193 668.375C190.946 667.377 183.174 666 176.877 666C173.039 666 168.696 666.885 165.871 667.743C168.71 667.912 171.873 668.291 175.316 669.022C183.37 670.723 195.121 672.578 201.685 672.227C201.868 672.227 206.253 672.227 206.436 672.227C203.231 670.624 196.077 668.952 194.207 668.375H194.193Z" fill="url(#paint20_linear_3837_308927)"/>
<path opacity="0.8" d="M-44.7392 508.223C-42.7995 508.603 -40.9723 509.151 -39.2575 509.882C-25.5252 515.827 -17.148 526.172 -18.5817 539.089C-15.7705 541.141 -13.5779 543.545 -11.9755 546.201C-11.0619 547.705 -8.12428 561.522 -9.55796 567.257C-11.8069 576.281 -15.5035 583.224 -19.7905 588.678C-16.9653 587.005 -13.8871 584.897 -11.3992 582.465C-3.48592 574.706 1.86927 559.189 1.86927 559.189C1.86927 559.189 7.28069 577.321 -1.49003 591.461C-10.0921 605.319 -14.379 606.486 -17.3729 612.544C-8.99573 611.026 -1.19485 608.608 2.95156 605.207C24.527 587.553 33.8599 570.644 36.1369 556.392C26.4385 554.087 9.71232 542.111 2.9094 535.758C-4.86337 528.505 -12.0599 510.346 -7.84317 504.962C-14.3931 503.107 -20.7462 502.053 -25.989 502.053C-49.9398 502.053 -57.8672 508.139 -57.8672 508.139C-57.8672 508.139 -57.2909 508.181 -56.293 508.307C-52.2028 507.633 -48.2812 507.534 -44.7392 508.209V508.223Z" fill="url(#paint21_radial_3837_308927)"/>
<g opacity="0.5">
<path d="M52.2577 536.532C53.6632 545.106 53.4946 557.264 50.6132 566.273C45.272 582.957 38.2723 592.375 29.361 597.14C33.7745 591.967 35.405 582.648 33.2404 576.506C29.5859 594.975 20.4357 596.549 8.43219 607.934C3.54083 612.502 0.701602 618.054 -1.96897 624.197C-6.97278 635.722 -1.32241 641.78 7.4483 643.087V641.162C7.39208 641.049 7.34992 640.937 7.32181 640.824C6.97042 639.461 6.84391 638.154 6.9423 636.889C4.28578 635.568 6.22547 633.389 8.46031 631.759C16.8937 615.552 57.5707 602.93 68.4638 556.519C70.6706 547.116 68.4217 538.499 66.8896 534.198C66.5804 533.327 65.3294 533.411 65.1326 534.311C64.7813 535.899 64.3315 537.783 63.8957 539.048C63.0665 541.409 60.9441 545.007 60.6489 543.545C57.7815 529.56 52.0328 517.95 44.3584 508.617C43.6978 508.561 43.0231 508.505 42.3485 508.477C47.2117 518.878 50.4023 525.133 52.2577 536.489V536.532Z" fill="url(#paint22_radial_3837_308927)"/>
</g>
<path opacity="0.85" d="M25.597 522.139C17.6696 514.774 4.52755 508.463 -7.85547 504.963C-7.19485 504.119 -6.28123 503.585 -5.03028 503.459C-5.03028 503.459 0.49359 500.001 9.1097 502.517C17.7258 505.033 25.4002 509.194 25.4002 509.194L20.2839 501.533C20.2839 501.533 23.9384 501.66 31.4722 508.575C39.7369 516.151 45.4857 528.717 45.9355 534.184C46.3571 539.357 47.2989 547.917 42.7308 555.127C41.6204 556.87 39.2309 557.123 36.1246 556.392C38.5562 541.156 32.934 528.956 25.5829 522.139H25.597Z" fill="url(#paint23_radial_3837_308927)"/>
<path opacity="0.8" d="M2.89323 535.757C9.69616 542.11 26.4224 554.085 36.1208 556.391C38.5524 541.154 32.9301 528.954 25.579 522.137C17.6516 514.772 4.50964 508.461 -7.87338 504.961C-12.0901 510.344 -4.89358 528.504 2.87918 535.757H2.89323Z" fill="url(#paint24_radial_3837_308927)"/>
<path opacity="0.85" d="M2.89323 535.757C9.69616 542.11 26.4224 554.085 36.1208 556.391C38.5524 541.154 32.9301 528.954 25.579 522.137C17.6516 514.772 4.50964 508.461 -7.87338 504.961C-12.0901 510.344 -4.89358 528.504 2.87918 535.757H2.89323Z" fill="url(#paint25_radial_3837_308927)"/>
<path d="M-17.3883 612.531C-14.3945 606.473 -10.1216 605.306 -1.50545 591.448C7.26526 577.322 1.85384 559.176 1.85384 559.176C1.85384 559.176 -3.50136 574.693 -11.4147 582.452C-13.8885 584.884 -16.9807 586.992 -19.8059 588.665C-24.1491 591.223 -27.8879 592.741 -27.8879 592.741C-27.8879 592.741 -24.2334 590.154 -21.7175 583C-20.087 578.404 -20.087 572.978 -20.087 572.978C-20.087 572.978 -27.9301 583.534 -36.7851 589.789C-44.9233 595.538 -56.1819 599.923 -61.776 617.366C-68.1432 637.269 -48.7043 653.911 -35.8293 657.973C-22.9544 662.035 -3.09375 648.331 -8.16783 645.407C-13.2419 642.484 -23.4041 635.962 -20.1011 620.894C-19.2718 617.127 -18.4144 614.555 -17.4164 612.531H-17.3883Z" fill="url(#paint26_linear_3837_308927)"/>
<path d="M1942.55 -8.5H-27.957V1099.5H1942.55V-8.5Z" fill="black"/>
<path d="M1940.65 -12.5H-31.4375V1242.06H1940.65V-12.5Z" fill="#210340"/>
<path opacity="0.8" d="M1935.82 7.91406H-36.2695V750.65H1935.82V7.91406Z" fill="url(#paint27_linear_3837_308927)"/>
<path d="M-31.9453 1160.09V709.939C-31.9453 709.939 250.314 714.537 460.174 680.884C616.977 655.729 835.108 636.434 1095.38 501.484C1462.32 311.215 1939.85 333.876 1939.85 333.876V1160.1H-31.9453V1160.09Z" fill="url(#paint28_linear_3837_308927)"/>
<path d="M1066.09 1160.09H1939.86V333.862C1939.86 333.862 1697.2 322.337 1425.12 384.829C1480.68 389.037 1555.6 402.964 1575.38 446.685C1607.85 518.476 1476.71 578.331 1372.46 641.583C1268.21 704.835 1071.22 846.693 1069.51 1027.89C1069.02 1079.24 1067.71 1123.3 1066.09 1160.09Z" fill="url(#paint29_linear_3837_308927)"/>
<path d="M1939.85 1243.5V981.736C1939.85 981.736 1617.8 1033.02 1381.74 1031.31C1048.2 1028.9 762.394 821.558 327.929 778.812C167.904 763.068 -30.1875 774.892 -30.1875 774.892V1243.5H1939.85Z" fill="url(#paint30_linear_3837_308927)"/>
<path d="M1939.85 1226.18V981.726C1939.85 981.726 1617.8 1033.01 1381.74 1031.3C1048.2 1028.89 762.394 821.549 327.929 778.802C167.904 763.059 -30.1875 774.882 -30.1875 774.882V1226.17H1939.85V1226.18Z" fill="url(#paint31_linear_3837_308927)"/>
<path d="M1944.29 871.316H-25.8555V1243.5H1944.29V871.316Z" fill="url(#paint32_linear_3837_308927)"/>
<path opacity="0.46" d="M170.864 381.473C121.655 364.805 95.2643 311.396 111.928 262.173C112.564 260.295 113.272 258.468 114 256.662C102.18 267.151 92.8326 280.75 87.4048 296.791C70.7415 346.013 97.1318 399.433 146.342 416.09C193.684 432.122 244.875 408.301 263.539 362.64C239.098 384.346 204.037 392.701 170.864 381.462V381.473Z" fill="url(#paint33_linear_3837_308927)"/>
<path opacity="0.42" d="M1904.61 40.2217C1899.45 41.248 1898.62 42.0896 1897.58 47.252C1896.55 42.0896 1895.71 41.2583 1890.55 40.2217C1895.71 39.1954 1896.54 38.3538 1897.58 33.1914C1898.61 38.3538 1899.45 39.1851 1904.61 40.2217Z" fill="#EBDFFA"/>
<g opacity="0.47">
<path d="M497.026 24.541C499.417 24.541 501.356 22.6019 501.356 20.21C501.356 17.818 499.417 15.8789 497.026 15.8789C494.634 15.8789 492.695 17.818 492.695 20.21C492.695 22.6019 494.634 24.541 497.026 24.541Z" fill="#EBDFFA"/>
<path d="M1171.97 232.268C1174.36 232.268 1176.3 230.329 1176.3 227.937C1176.3 225.545 1174.36 223.605 1171.97 223.605C1169.58 223.605 1167.64 225.545 1167.64 227.937C1167.64 230.329 1169.58 232.268 1171.97 232.268Z" fill="#EBDFFA"/>
<path opacity="0.72" d="M805.651 533.77C808.042 533.77 809.98 531.83 809.98 529.438C809.98 527.046 808.042 525.107 805.651 525.107C803.259 525.107 801.32 527.046 801.32 529.438C801.32 531.83 803.259 533.77 805.651 533.77Z" fill="#EBDFFA"/>
<path d="M1506.56 271.217C1508.95 271.217 1510.89 269.278 1510.89 266.886C1510.89 264.494 1508.95 262.555 1506.56 262.555C1504.17 262.555 1502.23 264.494 1502.23 266.886C1502.23 269.278 1504.17 271.217 1506.56 271.217Z" fill="#EBDFFA"/>
<path d="M22.5406 478.943C24.932 478.943 26.8708 477.004 26.8708 474.612C26.8708 472.22 24.932 470.281 22.5406 470.281C20.1493 470.281 18.2109 472.22 18.2109 474.612C18.2109 477.004 20.1493 478.943 22.5406 478.943Z" fill="#EBDFFA"/>
<path d="M1846.91 242.367C1849.3 242.367 1851.24 240.428 1851.24 238.036C1851.24 235.644 1849.3 233.705 1846.91 233.705C1844.52 233.705 1842.58 235.644 1842.58 238.036C1842.58 240.428 1844.52 242.367 1846.91 242.367Z" fill="#EBDFFA"/>
<path d="M54.2656 197.641C55.858 197.641 57.1489 196.35 57.1489 194.757C57.1489 193.164 55.858 191.873 54.2656 191.873C52.6732 191.873 51.3828 193.164 51.3828 194.757C51.3828 196.35 52.6732 197.641 54.2656 197.641Z" fill="#EBDFFA"/>
<path opacity="0.43" d="M1819.52 287.084C1821.11 287.084 1822.4 285.793 1822.4 284.2C1822.4 282.608 1821.11 281.316 1819.52 281.316C1817.92 281.316 1816.63 282.608 1816.63 284.2C1816.63 285.793 1817.92 287.084 1819.52 287.084Z" fill="#EBDFFA"/>
<path opacity="0.2" d="M-1.98389 212.069C-0.391528 212.069 0.8994 210.778 0.8994 209.185C0.8994 207.592 -0.391528 206.301 -1.98389 206.301C-3.57626 206.301 -4.86719 207.592 -4.86719 209.185C-4.86719 210.778 -3.57626 212.069 -1.98389 212.069Z" fill="#EBDFFA"/>
<path opacity="0.2" d="M422.099 385.18C425.329 385.18 427.948 382.561 427.948 379.33C427.948 376.1 425.329 373.48 422.099 373.48C418.869 373.48 416.25 376.1 416.25 379.33C416.25 382.561 418.869 385.18 422.099 385.18Z" fill="#EBDFFA"/>
<path opacity="0.2" d="M1598.93 116.858C1602.16 116.858 1604.78 114.239 1604.78 111.008C1604.78 107.777 1602.16 105.158 1598.93 105.158C1595.7 105.158 1593.09 107.777 1593.09 111.008C1593.09 114.239 1595.7 116.858 1598.93 116.858Z" fill="#EBDFFA"/>
<path opacity="0.2" d="M889.38 261.118C892.61 261.118 895.228 258.499 895.228 255.268C895.228 252.037 892.61 249.418 889.38 249.418C886.15 249.418 883.531 252.037 883.531 255.268C883.531 258.499 886.15 261.118 889.38 261.118Z" fill="#EBDFFA"/>
<path opacity="0.2" d="M1036.48 145.718C1039.71 145.718 1042.33 143.098 1042.33 139.868C1042.33 136.637 1039.71 134.018 1036.48 134.018C1033.25 134.018 1030.63 136.637 1030.63 139.868C1030.63 143.098 1033.25 145.718 1036.48 145.718Z" fill="#EBDFFA"/>
<path opacity="0.2" d="M631.22 428.458C634.45 428.458 637.068 425.839 637.068 422.608C637.068 419.377 634.45 416.758 631.22 416.758C627.99 416.758 625.371 419.377 625.371 422.608C625.371 425.839 627.99 428.458 631.22 428.458Z" fill="#EBDFFA"/>
<path opacity="0.2" d="M456.641 362.096C458.233 362.096 459.524 360.805 459.524 359.212C459.524 357.619 458.233 356.328 456.641 356.328C455.049 356.328 453.758 357.619 453.758 359.212C453.758 360.805 455.049 362.096 456.641 362.096Z" fill="#EBDFFA"/>
<path opacity="0.2" d="M1249.84 145.707C1251.44 145.707 1252.73 144.416 1252.73 142.823C1252.73 141.231 1251.44 139.939 1249.84 139.939C1248.25 139.939 1246.96 141.231 1246.96 142.823C1246.96 144.416 1248.25 145.707 1249.84 145.707Z" fill="#EBDFFA"/>
<path opacity="0.2" d="M296.63 545.306C299.86 545.306 302.478 542.686 302.478 539.455C302.478 536.225 299.86 533.605 296.63 533.605C293.4 533.605 290.781 536.225 290.781 539.455C290.781 542.686 293.4 545.306 296.63 545.306Z" fill="#EBDFFA"/>
<path opacity="0.2" d="M205.716 579.924C207.32 579.924 208.62 578.624 208.62 577.02C208.62 575.416 207.32 574.115 205.716 574.115C204.113 574.115 202.812 575.416 202.812 577.02C202.812 578.624 204.113 579.924 205.716 579.924Z" fill="#EBDFFA"/>
<path opacity="0.2" d="M401.915 96.6727C405.145 96.6727 407.763 94.0535 407.763 90.8227C407.763 87.5918 405.145 84.9727 401.915 84.9727C398.685 84.9727 396.066 87.5918 396.066 90.8227C396.066 94.0535 398.685 96.6727 401.915 96.6727Z" fill="#EBDFFA"/>
<path d="M346.305 307.282C347.501 307.282 348.471 306.313 348.471 305.117C348.471 303.921 347.501 302.951 346.305 302.951C345.11 302.951 344.141 303.921 344.141 305.117C344.141 306.313 345.11 307.282 346.305 307.282Z" fill="#EBDFFA"/>
<path d="M1514.49 113.974C1515.69 113.974 1516.65 113.004 1516.65 111.808C1516.65 110.612 1515.69 109.643 1514.49 109.643C1513.29 109.643 1512.32 110.612 1512.32 111.808C1512.32 113.004 1513.29 113.974 1514.49 113.974Z" fill="#EBDFFA"/>
<path d="M1853.41 60.6045C1854.6 60.6045 1855.57 59.635 1855.57 58.439C1855.57 57.243 1854.6 56.2734 1853.41 56.2734C1852.21 56.2734 1851.24 57.243 1851.24 58.439C1851.24 59.635 1852.21 60.6045 1853.41 60.6045Z" fill="#EBDFFA"/>
<path d="M1367.38 239.483C1368.58 239.483 1369.54 238.514 1369.54 237.318C1369.54 236.122 1368.58 235.152 1367.38 235.152C1366.18 235.152 1365.21 236.122 1365.21 237.318C1365.21 238.514 1366.18 239.483 1367.38 239.483Z" fill="#EBDFFA"/>
<path d="M895.782 302.95C896.978 302.95 897.947 301.981 897.947 300.785C897.947 299.589 896.978 298.619 895.782 298.619C894.586 298.619 893.617 299.589 893.617 300.785C893.617 301.981 894.586 302.95 895.782 302.95Z" fill="#EBDFFA"/>
<path d="M1378.66 222.17C1380.5 222.17 1382 220.672 1382 218.824C1382 216.976 1380.5 215.479 1378.66 215.479C1376.81 215.479 1375.31 216.976 1375.31 218.824C1375.31 220.672 1376.81 222.17 1378.66 222.17Z" fill="#EBDFFA"/>
<path d="M698.063 86.5619C699.973 86.5619 701.521 85.0134 701.521 83.1032C701.521 81.193 699.973 79.6445 698.063 79.6445C696.154 79.6445 694.605 81.193 694.605 83.1032C694.605 85.0134 696.154 86.5619 698.063 86.5619Z" fill="#EBDFFA"/>
<path d="M1257.63 109.642C1259.54 109.642 1261.09 108.093 1261.09 106.183C1261.09 104.273 1259.54 102.725 1257.63 102.725C1255.72 102.725 1254.18 104.273 1254.18 106.183C1254.18 108.093 1255.72 109.642 1257.63 109.642Z" fill="#EBDFFA"/>
<path d="M973.517 180.337C975.426 180.337 976.974 178.789 976.974 176.879C976.974 174.968 975.426 173.42 973.517 173.42C971.607 173.42 970.059 174.968 970.059 176.879C970.059 178.789 971.607 180.337 973.517 180.337Z" fill="#EBDFFA"/>
<path d="M220.841 152.925C222.036 152.925 223.005 151.955 223.005 150.759C223.005 149.563 222.036 148.594 220.841 148.594C219.645 148.594 218.676 149.563 218.676 150.759C218.676 151.955 219.645 152.925 220.841 152.925Z" fill="#EBDFFA"/>
<path d="M845.309 126.956C846.505 126.956 847.474 125.987 847.474 124.791C847.474 123.595 846.505 122.625 845.309 122.625C844.114 122.625 843.145 123.595 843.145 124.791C843.145 125.987 844.114 126.956 845.309 126.956Z" fill="#EBDFFA"/>
<path d="M1047.22 170.237C1048.41 170.237 1049.38 169.268 1049.38 168.072C1049.38 166.876 1048.41 165.906 1047.22 165.906C1046.02 165.906 1045.05 166.876 1045.05 168.072C1045.05 169.268 1046.02 170.237 1047.22 170.237Z" fill="#EBDFFA"/>
<path d="M274.546 86.5736C269.528 87.5793 268.718 88.3901 267.712 93.4088C266.707 88.3901 265.896 87.5793 260.879 86.5736C265.896 85.5678 266.707 84.757 267.712 79.7383C268.718 84.757 269.528 85.5678 274.546 86.5736Z" fill="#EBDFFA"/>
<path d="M476.453 258.234C471.435 259.239 470.624 260.05 469.619 265.069C468.613 260.05 467.803 259.239 462.785 258.234C467.803 257.228 468.613 256.417 469.619 251.398C470.624 256.417 471.435 257.228 476.453 258.234Z" fill="#EBDFFA"/>
<path d="M1567.92 46.7606C1559.3 48.4848 1557.9 49.8806 1556.18 58.5017C1554.46 49.8806 1553.06 48.4848 1544.44 46.7606C1553.06 45.0364 1554.46 43.6406 1556.18 35.0195C1557.9 43.6406 1559.3 45.0364 1567.92 46.7606Z" fill="#EBDFFA"/>
<path opacity="0.49" d="M776.318 311.499C769.259 312.916 768.12 314.055 766.704 321.116C765.288 314.055 764.149 312.916 757.09 311.499C764.149 310.083 765.288 308.944 766.704 301.883C768.12 308.944 769.259 310.083 776.318 311.499Z" fill="#EBDFFA"/>
<path opacity="0.49" d="M821.517 165.557C811.102 167.64 809.42 169.323 807.337 179.74C805.254 169.323 803.571 167.64 793.156 165.557C803.571 163.473 805.254 161.79 807.337 151.373C809.42 161.79 811.102 163.473 821.517 165.557Z" fill="#EBDFFA"/>
<path d="M968.623 51.8522C963.318 52.9093 962.466 53.7714 961.399 59.0775C960.342 53.7714 959.481 52.9196 954.176 51.8522C959.481 50.7951 960.332 49.933 961.399 44.627C962.456 49.933 963.318 50.7849 968.623 51.8522Z" fill="#EBDFFA"/>
<path opacity="0.67" d="M577.401 151.488C572.384 152.493 571.574 153.304 570.568 158.323C569.563 153.304 568.752 152.493 563.734 151.488C568.752 150.482 569.563 149.671 570.568 144.652C571.574 149.671 572.384 150.482 577.401 151.488Z" fill="#EBDFFA"/>
<path opacity="0.42" d="M1225.86 309.715C1215.22 311.839 1213.48 313.574 1211.36 324.217C1209.23 313.574 1207.5 311.839 1196.86 309.715C1207.5 307.59 1209.23 305.856 1211.36 295.213C1213.48 305.856 1215.22 307.59 1225.86 309.715Z" fill="#EBDFFA"/>
<path opacity="0.42" d="M1715.67 157.071C1710.51 158.098 1709.68 158.939 1708.65 164.102C1707.62 158.939 1706.78 158.108 1701.62 157.071C1706.78 156.045 1707.61 155.203 1708.65 150.041C1709.67 155.203 1710.51 156.035 1715.67 157.071Z" fill="#EBDFFA"/>
<path opacity="0.43" d="M479.254 159.049C480.149 159.049 480.875 158.323 480.875 157.428C480.875 156.532 480.149 155.807 479.254 155.807C478.359 155.807 477.633 156.532 477.633 157.428C477.633 158.323 478.359 159.049 479.254 159.049Z" fill="#EBDFFA"/>
<path opacity="0.43" d="M1141.22 58.0705C1142.11 58.0705 1142.84 57.3447 1142.84 56.4493C1142.84 55.554 1142.11 54.8281 1141.22 54.8281C1140.32 54.8281 1139.59 55.554 1139.59 56.4493C1139.59 57.3447 1140.32 58.0705 1141.22 58.0705Z" fill="#EBDFFA"/>
<path opacity="0.43" d="M1356.1 99.9045C1357 99.9045 1357.72 99.1786 1357.72 98.2833C1357.72 97.3879 1357 96.6621 1356.1 96.6621C1355.21 96.6621 1354.48 97.3879 1354.48 98.2833C1354.48 99.1786 1355.21 99.9045 1356.1 99.9045Z" fill="#EBDFFA"/>
<path opacity="0.43" d="M790.769 421.592C791.665 421.592 792.39 420.866 792.39 419.971C792.39 419.075 791.665 418.35 790.769 418.35C789.874 418.35 789.148 419.075 789.148 419.971C789.148 420.866 789.874 421.592 790.769 421.592Z" fill="#EBDFFA"/>
<path opacity="0.43" d="M271.578 49.4181C272.473 49.4181 273.199 48.6923 273.199 47.797C273.199 46.9016 272.473 46.1758 271.578 46.1758C270.682 46.1758 269.957 46.9016 269.957 47.797C269.957 48.6923 270.682 49.4181 271.578 49.4181Z" fill="#EBDFFA"/>
<path opacity="0.43" d="M594.621 298.977C595.517 298.977 596.243 298.251 596.243 297.356C596.243 296.46 595.517 295.734 594.621 295.734C593.726 295.734 593 296.46 593 297.356C593 298.251 593.726 298.977 594.621 298.977Z" fill="#EBDFFA"/>
<path opacity="0.43" d="M1024.4 340.811C1025.29 340.811 1026.02 340.085 1026.02 339.19C1026.02 338.294 1025.29 337.568 1024.4 337.568C1023.5 337.568 1022.78 338.294 1022.78 339.19C1022.78 340.085 1023.5 340.811 1024.4 340.811Z" fill="#EBDFFA"/>
<path opacity="0.43" d="M590.305 587.485C591.2 587.485 591.926 586.759 591.926 585.863C591.926 584.968 591.2 584.242 590.305 584.242C589.409 584.242 588.684 584.968 588.684 585.863C588.684 586.759 589.409 587.485 590.305 587.485Z" fill="#EBDFFA"/>
<path opacity="0.43" d="M1337.36 363.893C1338.25 363.893 1338.98 363.167 1338.98 362.272C1338.98 361.376 1338.25 360.65 1337.36 360.65C1336.46 360.65 1335.74 361.376 1335.74 362.272C1335.74 363.167 1336.46 363.893 1337.36 363.893Z" fill="#EBDFFA"/>
<path opacity="0.43" d="M1569.55 249.932C1570.44 249.932 1571.17 249.206 1571.17 248.311C1571.17 247.415 1570.44 246.689 1569.55 246.689C1568.65 246.689 1567.93 247.415 1567.93 248.311C1567.93 249.206 1568.65 249.932 1569.55 249.932Z" fill="#EBDFFA"/>
<path opacity="0.43" d="M172.994 32.1042C174.399 32.1042 175.538 30.9647 175.538 29.5589C175.538 28.1532 174.399 27.0137 172.994 27.0137C171.588 27.0137 170.449 28.1532 170.449 29.5589C170.449 30.9647 171.588 32.1042 172.994 32.1042Z" fill="#EBDFFA"/>
</g>
<path d="M1942.55 -69.9941H-27.957V1038.01H1942.55V-69.9941Z" fill="black"/>
<path d="M1940.65 -73.9941H-31.4414V1180.57H1940.65V-73.9941Z" fill="#210340"/>
<path opacity="0.8" d="M1935.82 -53.5801H-36.2695V689.156H1935.82V-53.5801Z" fill="url(#paint34_linear_3837_308927)"/>
<path d="M-31.9453 1098.6V648.447C-31.9453 648.447 250.314 653.045 460.174 619.392C616.977 594.237 835.108 574.942 1095.38 439.992C1462.32 249.722 1939.85 272.384 1939.85 272.384V1098.61H-31.9453V1098.6Z" fill="url(#paint35_linear_3837_308927)"/>
<path d="M1066.09 1098.6H1939.86V272.368C1939.86 272.368 1697.2 260.843 1425.12 323.335C1480.68 327.543 1555.6 341.47 1575.38 385.191C1607.85 456.982 1476.71 516.837 1372.46 580.089C1268.21 643.341 1071.22 785.199 1069.51 966.395C1069.02 1017.74 1067.71 1061.8 1066.09 1098.6Z" fill="url(#paint36_linear_3837_308927)"/>
<path d="M1939.85 1182V920.242C1939.85 920.242 1617.8 971.527 1381.74 969.813C1048.2 967.401 762.394 760.064 327.929 717.318C167.904 701.574 -30.1875 713.397 -30.1875 713.397V1182H1939.85Z" fill="url(#paint37_linear_3837_308927)"/>
<path d="M1939.85 1164.69V920.232C1939.85 920.232 1617.8 971.517 1381.74 969.803C1048.2 967.391 762.394 760.054 327.929 717.308C167.904 701.565 -30.1875 713.388 -30.1875 713.388V1164.68H1939.85V1164.69Z" fill="url(#paint38_linear_3837_308927)"/>
<g clip-path="url(#clip1_3837_308927)">
<path d="M1732.79 770.03C1732.79 770.03 1737.41 762.422 1741.55 755.69C1745.7 748.959 1748.72 745.284 1750.63 744.415C1752.55 743.545 1754.86 743.847 1757.17 749.361C1759.47 754.876 1761.63 773.081 1761.63 773.081L1732.79 770.03H1732.79Z" fill="url(#paint39_linear_3837_308927)"/>
<path d="M1703.62 877.348C1754.14 868.759 1805.19 853.204 1820.25 864.99C1835.31 876.775 1858.23 915.406 1830.73 931.121C1803.23 946.835 1818.22 948.846 1818.22 948.846L1850.46 950.828C1850.46 950.828 1855.59 950.944 1864.69 949.488C1882.25 946.674 1903.73 932.933 1911.69 903.422C1922.53 863.187 1905.04 817.004 1846.53 793.476C1786.72 769.43 1720.97 787.975 1706.9 791.904C1692.82 795.832 1674.81 800.743 1674.81 800.743C1674.81 800.743 1680.71 802.052 1684.31 802.381C1687.91 802.707 1692.49 802.707 1692.49 802.707C1692.49 802.707 1654.8 822.822 1637.17 831.19C1617.85 840.355 1592.97 837.081 1592.97 837.081C1592.97 837.081 1625.99 890.55 1703.62 877.349V877.348Z" fill="url(#paint40_linear_3837_308927)"/>
<mask id="mask0_3837_308927" style="mask-type:luminance" maskUnits="userSpaceOnUse" x="1592" y="781" width="323" height="170">
<path d="M1703.62 877.348C1754.14 868.759 1805.19 853.204 1820.25 864.99C1835.31 876.775 1858.23 915.406 1830.73 931.121C1803.23 946.835 1818.22 948.846 1818.22 948.846L1850.46 950.828C1850.46 950.828 1855.59 950.944 1864.69 949.488C1882.25 946.674 1903.73 932.933 1911.69 903.422C1922.53 863.187 1905.04 817.004 1846.53 793.476C1786.72 769.43 1720.97 787.975 1706.9 791.904C1692.82 795.832 1674.81 800.743 1674.81 800.743C1674.81 800.743 1680.71 802.052 1684.31 802.381C1687.91 802.707 1692.49 802.707 1692.49 802.707C1692.49 802.707 1654.8 822.822 1637.17 831.19C1617.85 840.355 1592.97 837.081 1592.97 837.081C1592.97 837.081 1625.99 890.55 1703.62 877.349V877.348Z" fill="white"/>
</mask>
<g mask="url(#mask0_3837_308927)">
<path d="M1847.6 985.605C1894.62 985.605 1932.73 951.233 1932.73 908.833C1932.73 866.433 1894.62 832.061 1847.6 832.061C1800.58 832.061 1762.46 866.433 1762.46 908.833C1762.46 951.233 1800.58 985.605 1847.6 985.605Z" fill="url(#paint41_radial_3837_308927)"/>
<path d="M1739.14 865.885C1744.56 827.675 1677.42 786.558 1589.18 774.046C1500.94 761.535 1425.01 782.368 1419.59 820.578C1414.18 858.788 1481.32 899.906 1569.56 912.417C1657.8 924.928 1733.72 904.095 1739.14 865.885Z" fill="url(#paint42_radial_3837_308927)"/>
</g>
<path d="M1746.68 815.966C1739.64 811.186 1723.54 813.887 1713.94 819.567C1697.9 829.062 1680.19 833.078 1680.19 833.078C1680.19 833.078 1683.81 833.955 1689.23 834.135C1694.14 834.3 1699.05 834.135 1699.05 834.135C1699.05 834.135 1692.28 837.365 1686.44 839.046C1680.61 840.726 1670.24 841.993 1670.24 841.993C1670.24 841.993 1700.52 852.141 1724.58 841.01C1744.81 831.653 1755.85 822.187 1746.68 815.966Z" fill="url(#paint43_linear_3837_308927)"/>
<path d="M1748.12 766.065C1748.12 766.065 1736.22 762.949 1727.63 769.792C1720.77 775.265 1709.77 774.864 1701.92 773.99C1694.55 773.172 1692.47 779.064 1695.62 785.186C1697.5 788.839 1700.36 794.277 1713.35 801.979C1723.71 808.125 1731.46 810.874 1731.95 823.554C1732.48 837.32 1732.43 867.822 1743.35 894.673C1749.54 909.905 1752.78 921.953 1754.38 929.148C1755.28 933.17 1753.56 937.293 1750.14 939.582C1747.71 941.203 1745.53 943.296 1746.01 945.379C1746.86 948.975 1749.12 950.163 1752.19 950.163C1755.25 950.163 1850.46 950.827 1850.46 950.827C1850.46 950.827 1853.38 919.805 1848.48 898.114C1845.17 883.436 1836.53 864.118 1815.07 851.523C1794.19 839.266 1790.43 838.608 1786.23 815.516C1783.01 797.782 1784.35 793.555 1779.94 775.399C1776.51 761.295 1773.23 753.563 1770.76 747.826C1769.1 743.959 1765.99 742.967 1761.95 747.151C1753.94 755.465 1748.12 766.065 1748.12 766.065H1748.12Z" fill="url(#paint44_linear_3837_308927)"/>
<mask id="mask1_3837_308927" style="mask-type:luminance" maskUnits="userSpaceOnUse" x="1694" y="744" width="158" height="207">
<path d="M1748.12 766.065C1748.12 766.065 1736.22 762.949 1727.63 769.792C1720.77 775.265 1709.77 774.864 1701.92 773.99C1694.55 773.172 1692.47 779.064 1695.62 785.186C1697.5 788.839 1700.36 794.277 1713.35 801.979C1723.71 808.125 1731.46 810.874 1731.95 823.554C1732.48 837.32 1732.43 867.822 1743.35 894.673C1749.54 909.905 1752.78 921.953 1754.38 929.148C1755.28 933.17 1753.56 937.293 1750.14 939.582C1747.71 941.203 1745.53 943.296 1746.01 945.379C1746.86 948.975 1749.12 950.163 1752.19 950.163C1755.25 950.163 1850.46 950.827 1850.46 950.827C1850.46 950.827 1853.38 919.805 1848.48 898.114C1845.17 883.436 1836.53 864.118 1815.07 851.523C1794.19 839.266 1790.43 838.608 1786.23 815.516C1783.01 797.782 1784.35 793.555 1779.94 775.399C1776.51 761.295 1773.23 753.563 1770.76 747.826C1769.1 743.959 1765.99 742.967 1761.95 747.151C1753.94 755.465 1748.12 766.065 1748.12 766.065H1748.12Z" fill="white"/>
</mask>
<g mask="url(#mask1_3837_308927)">
<path d="M1824.73 880.865C1824.73 880.865 1799.21 880.99 1788.88 902.686C1782.76 915.531 1787.15 925.648 1787.15 925.648C1787.15 925.648 1785.56 929.049 1795.58 942.531C1805.6 956.013 1825.67 967.145 1825.67 967.145L1877.68 883.456L1824.74 880.865H1824.73Z" fill="url(#paint45_radial_3837_308927)"/>
<path opacity="0.6" d="M1713.85 783.302C1719.37 785.044 1724.49 786.657 1729.51 787.317C1736.16 788.192 1743.2 787.995 1751.28 789.522C1759.36 791.05 1763.28 793.232 1766.67 796.07C1770.05 798.908 1769.29 800.749 1766.56 800.654C1765.37 800.614 1763.63 799.778 1763.28 800.614C1762.95 801.403 1764.17 801.664 1765.45 802.5C1766.35 803.083 1767.08 804.182 1766.46 805.414C1765.8 806.736 1764.33 807.436 1761.54 806.874C1758.94 806.35 1758.65 806.049 1758.38 806.463C1758.07 806.93 1760.24 807.588 1761.33 808.679C1762.42 809.769 1762.2 812.657 1757.28 812.003C1752.37 811.348 1745.94 807.856 1742.33 810.147C1738.73 812.439 1736 819.532 1734.7 829.462C1733.39 839.392 1734.8 868.311 1734.8 868.311L1686.35 789.412L1694.65 781.01L1713.85 783.301L1713.85 783.302Z" fill="url(#paint46_linear_3837_308927)"/>
<path d="M1764.87 933.758C1765.25 928.077 1762.74 917.289 1760.04 908.662C1756.92 898.646 1753.39 891.186 1752.99 890.338L1752.43 902.165L1731.8 874.502C1733.22 879.294 1725.47 954.219 1728.53 954.219C1730.44 954.219 1758.5 951.626 1761.95 951.626C1761.97 947.794 1764.34 941.659 1764.87 933.756L1764.87 933.758Z" fill="url(#paint47_linear_3837_308927)"/>
<path d="M1780.34 913.349C1783.37 889.325 1783.61 877.152 1783.61 877.152C1783.61 877.152 1781.81 886.319 1780.66 890.411C1779.06 896.133 1778.21 899.578 1778.21 899.578L1771.5 879.608L1768.71 900.56L1764.3 890.902C1764.3 890.902 1764.66 899.139 1764.69 908.614C1764.73 919.76 1764 935.47 1763.26 937.838C1761.91 942.149 1756.27 942.08 1756.09 946.06C1755.99 948.167 1757.88 950.669 1760.07 951.085C1763.64 951.085 1766.23 951.728 1769.15 951.832C1775.68 952.065 1775.8 942.639 1776.44 938.916C1776.56 937.418 1779.24 922.053 1780.34 913.347L1780.34 913.349Z" fill="url(#paint48_linear_3837_308927)"/>
<path d="M1824.51 936.828C1806.67 940.502 1780.22 939.413 1775.5 940.812C1769.3 942.648 1768.85 946.777 1770.25 949.558C1771.35 951.727 1774.01 951.329 1781.51 951.329C1791.4 951.329 1834.14 952.641 1841.31 952.221C1852.17 951.582 1856.2 930.304 1824.51 936.828H1824.51Z" fill="url(#paint49_linear_3837_308927)"/>
<path d="M1850.42 989.997C1878.82 989.997 1901.85 969.233 1901.85 943.618C1901.85 918.003 1878.82 897.238 1850.42 897.238C1822.01 897.238 1798.99 918.003 1798.99 943.618C1798.99 969.233 1822.01 989.997 1850.42 989.997Z" fill="url(#paint50_radial_3837_308927)"/>
<path opacity="0.6" d="M1979.37 929.533C2015.32 874.329 1999.72 800.446 1944.53 764.51C1889.34 728.574 1815.46 744.193 1779.51 799.397C1743.57 854.6 1759.17 928.483 1814.36 964.419C1869.55 1000.36 1943.43 984.736 1979.37 929.533Z" fill="url(#paint51_radial_3837_308927)"/>
<path opacity="0.6" d="M1741.87 838.193C1741.87 838.193 1741.8 846.777 1742.69 855.217C1744.2 869.582 1748.23 881.307 1751.2 886.973C1760.2 904.16 1764.46 926.585 1764.46 926.585C1764.46 926.585 1766.42 876.987 1759.55 860.454C1754.53 848.388 1744.07 838.193 1741.87 838.193Z" fill="url(#paint52_linear_3837_308927)"/>
<path d="M1689.99 775.817C1693.45 772.845 1697.98 769.795 1700.65 772.274C1703.31 774.752 1704.16 777.267 1707.99 779.972C1710.97 782.072 1713.58 783.06 1715.86 783.821C1720.06 785.22 1721.46 787.32 1716.39 790.818C1710.33 794.998 1701.21 794.686 1695.43 790.071C1689.66 785.455 1689.98 775.819 1689.98 775.819L1689.99 775.817Z" fill="#FFC300"/>
<path d="M1689.21 772.379C1688.31 773.802 1689.01 777.79 1691.72 779.401C1694.85 781.259 1698.36 779.627 1699.06 778.445C1699.93 776.973 1700.04 774.414 1696.1 772.174C1691.93 769.809 1690.12 770.955 1689.21 772.379Z" fill="#1B0041"/>
</g>
<path d="M1729.7 773.989L1728.45 776.83C1727.71 778.491 1728.55 780.424 1730.27 781.019L1731.03 781.281C1732.79 781.891 1734.69 780.824 1735.08 779.005L1735.74 775.956C1736.09 774.361 1735.18 772.761 1733.63 772.246C1732.07 771.726 1730.36 772.481 1729.7 773.987V773.989Z" fill="url(#paint53_linear_3837_308927)"/>
<path d="M1731.28 776.234C1731.95 776.234 1732.5 775.689 1732.5 775.016C1732.5 774.342 1731.95 773.797 1731.28 773.797C1730.61 773.797 1730.06 774.342 1730.06 775.016C1730.06 775.689 1730.61 776.234 1731.28 776.234Z" fill="white"/>
</g>
<path d="M1944.29 809.822H-25.8555V1182.01H1944.29V809.822Z" fill="url(#paint54_linear_3837_308927)"/>
<path opacity="0.46" d="M170.864 319.981C121.655 303.313 95.2643 249.904 111.928 200.681C112.564 198.803 113.272 196.976 114 195.17C102.18 205.659 92.8326 219.258 87.4048 235.299C70.7415 284.521 97.1318 337.941 146.342 354.598C193.684 370.629 244.875 346.808 263.539 301.148C239.098 322.854 204.037 331.208 170.864 319.97V319.981Z" fill="url(#paint55_linear_3837_308927)"/>
<g opacity="0.47">
<path d="M1171.97 170.773C1174.36 170.773 1176.3 168.834 1176.3 166.442C1176.3 164.05 1174.36 162.111 1171.97 162.111C1169.58 162.111 1167.64 164.05 1167.64 166.442C1167.64 168.834 1169.58 170.773 1171.97 170.773Z" fill="#EBDFFA"/>
<path opacity="0.72" d="M805.651 472.275C808.042 472.275 809.98 470.336 809.98 467.944C809.98 465.552 808.042 463.613 805.651 463.613C803.259 463.613 801.32 465.552 801.32 467.944C801.32 470.336 803.259 472.275 805.651 472.275Z" fill="#EBDFFA"/>
<path d="M1506.56 209.723C1508.95 209.723 1510.89 207.784 1510.89 205.392C1510.89 203 1508.95 201.061 1506.56 201.061C1504.17 201.061 1502.23 203 1502.23 205.392C1502.23 207.784 1504.17 209.723 1506.56 209.723Z" fill="#EBDFFA"/>
<path d="M22.5406 417.449C24.932 417.449 26.8708 415.51 26.8708 413.118C26.8708 410.726 24.932 408.787 22.5406 408.787C20.1493 408.787 18.2109 410.726 18.2109 413.118C18.2109 415.51 20.1493 417.449 22.5406 417.449Z" fill="#EBDFFA"/>
<path d="M1846.91 180.873C1849.3 180.873 1851.24 178.934 1851.24 176.542C1851.24 174.15 1849.3 172.211 1846.91 172.211C1844.52 172.211 1842.58 174.15 1842.58 176.542C1842.58 178.934 1844.52 180.873 1846.91 180.873Z" fill="#EBDFFA"/>
<path d="M54.2656 136.147C55.858 136.147 57.1489 134.856 57.1489 133.263C57.1489 131.67 55.858 130.379 54.2656 130.379C52.6732 130.379 51.3828 131.67 51.3828 133.263C51.3828 134.856 52.6732 136.147 54.2656 136.147Z" fill="#EBDFFA"/>
<path opacity="0.43" d="M1819.52 225.592C1821.11 225.592 1822.4 224.301 1822.4 222.708C1822.4 221.115 1821.11 219.824 1819.52 219.824C1817.93 219.824 1816.64 221.115 1816.64 222.708C1816.64 224.301 1817.93 225.592 1819.52 225.592Z" fill="#EBDFFA"/>
<path opacity="0.2" d="M-1.98389 150.577C-0.391528 150.577 0.8994 149.285 0.8994 147.693C0.8994 146.1 -0.391528 144.809 -1.98389 144.809C-3.57626 144.809 -4.86719 146.1 -4.86719 147.693C-4.86719 149.285 -3.57626 150.577 -1.98389 150.577Z" fill="#EBDFFA"/>
<path opacity="0.2" d="M422.099 323.688C425.329 323.688 427.948 321.069 427.948 317.838C427.948 314.607 425.329 311.988 422.099 311.988C418.869 311.988 416.25 314.607 416.25 317.838C416.25 321.069 418.869 323.688 422.099 323.688Z" fill="#EBDFFA"/>
<path opacity="0.2" d="M1598.93 55.3641C1602.16 55.3641 1604.78 52.745 1604.78 49.5141C1604.78 46.2832 1602.16 43.6641 1598.93 43.6641C1595.7 43.6641 1593.09 46.2832 1593.09 49.5141C1593.09 52.745 1595.7 55.3641 1598.93 55.3641Z" fill="#EBDFFA"/>
<path opacity="0.2" d="M889.38 199.624C892.61 199.624 895.228 197.005 895.228 193.774C895.228 190.543 892.61 187.924 889.38 187.924C886.15 187.924 883.531 190.543 883.531 193.774C883.531 197.005 886.15 199.624 889.38 199.624Z" fill="#EBDFFA"/>
<path opacity="0.2" d="M1036.48 84.2235C1039.71 84.2235 1042.33 81.6043 1042.33 78.3734C1042.33 75.1426 1039.71 72.5234 1036.48 72.5234C1033.25 72.5234 1030.63 75.1426 1030.63 78.3734C1030.63 81.6043 1033.25 84.2235 1036.48 84.2235Z" fill="#EBDFFA"/>
<path opacity="0.2" d="M631.22 366.964C634.45 366.964 637.068 364.345 637.068 361.114C637.068 357.883 634.45 355.264 631.22 355.264C627.99 355.264 625.371 357.883 625.371 361.114C625.371 364.345 627.99 366.964 631.22 366.964Z" fill="#EBDFFA"/>
<path opacity="0.2" d="M456.645 300.604C458.237 300.604 459.528 299.313 459.528 297.72C459.528 296.127 458.237 294.836 456.645 294.836C455.053 294.836 453.762 296.127 453.762 297.72C453.762 299.313 455.053 300.604 456.645 300.604Z" fill="#EBDFFA"/>
<path opacity="0.2" d="M1249.84 84.2152C1251.44 84.2152 1252.73 82.924 1252.73 81.3312C1252.73 79.7385 1251.44 78.4473 1249.84 78.4473C1248.25 78.4473 1246.96 79.7385 1246.96 81.3312C1246.96 82.924 1248.25 84.2152 1249.84 84.2152Z" fill="#EBDFFA"/>
<path opacity="0.2" d="M296.63 483.811C299.86 483.811 302.478 481.192 302.478 477.961C302.478 474.73 299.86 472.111 296.63 472.111C293.4 472.111 290.781 474.73 290.781 477.961C290.781 481.192 293.4 483.811 296.63 483.811Z" fill="#EBDFFA"/>
<path opacity="0.2" d="M205.716 518.43C207.32 518.43 208.62 517.13 208.62 515.526C208.62 513.921 207.32 512.621 205.716 512.621C204.113 512.621 202.812 513.921 202.812 515.526C202.812 517.13 204.113 518.43 205.716 518.43Z" fill="#EBDFFA"/>
<path opacity="0.2" d="M401.915 35.1785C405.145 35.1785 407.763 32.5594 407.763 29.3285C407.763 26.0977 405.145 23.4785 401.915 23.4785C398.685 23.4785 396.066 26.0977 396.066 29.3285C396.066 32.5594 398.685 35.1785 401.915 35.1785Z" fill="#EBDFFA"/>
<path d="M346.305 245.788C347.501 245.788 348.471 244.819 348.471 243.623C348.471 242.427 347.501 241.457 346.305 241.457C345.11 241.457 344.141 242.427 344.141 243.623C344.141 244.819 345.11 245.788 346.305 245.788Z" fill="#EBDFFA"/>
<path d="M1514.49 52.4795C1515.69 52.4795 1516.65 51.51 1516.65 50.314C1516.65 49.118 1515.69 48.1484 1514.49 48.1484C1513.29 48.1484 1512.32 49.118 1512.32 50.314C1512.32 51.51 1513.29 52.4795 1514.49 52.4795Z" fill="#EBDFFA"/>
<path d="M1367.38 177.989C1368.58 177.989 1369.54 177.02 1369.54 175.824C1369.54 174.628 1368.58 173.658 1367.38 173.658C1366.18 173.658 1365.21 174.628 1365.21 175.824C1365.21 177.02 1366.18 177.989 1367.38 177.989Z" fill="#EBDFFA"/>
<path d="M895.782 241.456C896.978 241.456 897.947 240.487 897.947 239.291C897.947 238.095 896.978 237.125 895.782 237.125C894.586 237.125 893.617 238.095 893.617 239.291C893.617 240.487 894.586 241.456 895.782 241.456Z" fill="#EBDFFA"/>
<path d="M1378.65 160.676C1380.5 160.676 1382 159.178 1382 157.33C1382 155.482 1380.5 153.984 1378.65 153.984C1376.81 153.984 1375.31 155.482 1375.31 157.33C1375.31 159.178 1376.81 160.676 1378.65 160.676Z" fill="#EBDFFA"/>
<path d="M698.063 25.0678C699.973 25.0678 701.521 23.5193 701.521 21.6091C701.521 19.6989 699.973 18.1504 698.063 18.1504C696.154 18.1504 694.605 19.6989 694.605 21.6091C694.605 23.5193 696.154 25.0678 698.063 25.0678Z" fill="#EBDFFA"/>
<path d="M1257.63 48.1479C1259.54 48.1479 1261.09 46.5993 1261.09 44.6892C1261.09 42.779 1259.54 41.2305 1257.63 41.2305C1255.72 41.2305 1254.17 42.779 1254.17 44.6892C1254.17 46.5993 1255.72 48.1479 1257.63 48.1479Z" fill="#EBDFFA"/>
<path d="M973.517 118.843C975.426 118.843 976.974 117.295 976.974 115.384C976.974 113.474 975.426 111.926 973.517 111.926C971.607 111.926 970.059 113.474 970.059 115.384C970.059 117.295 971.607 118.843 973.517 118.843Z" fill="#EBDFFA"/>
<path d="M220.841 91.4307C222.036 91.4307 223.005 90.4611 223.005 89.2651C223.005 88.0692 222.036 87.0996 220.841 87.0996C219.645 87.0996 218.676 88.0692 218.676 89.2651C218.676 90.4611 219.645 91.4307 220.841 91.4307Z" fill="#EBDFFA"/>
<path d="M845.309 65.4639C846.505 65.4639 847.474 64.4943 847.474 63.2983C847.474 62.1024 846.505 61.1328 845.309 61.1328C844.114 61.1328 843.145 62.1024 843.145 63.2983C843.145 64.4943 844.114 65.4639 845.309 65.4639Z" fill="#EBDFFA"/>
<path d="M1047.22 108.743C1048.41 108.743 1049.38 107.774 1049.38 106.578C1049.38 105.382 1048.41 104.412 1047.22 104.412C1046.02 104.412 1045.05 105.382 1045.05 106.578C1045.05 107.774 1046.02 108.743 1047.22 108.743Z" fill="#EBDFFA"/>
<path d="M274.546 25.0794C269.528 26.0852 268.718 26.896 267.712 31.9147C266.707 26.896 265.896 26.0852 260.879 25.0794C265.896 24.0736 266.707 23.2628 267.712 18.2441C268.718 23.2628 269.528 24.0736 274.546 25.0794Z" fill="#EBDFFA"/>
<path d="M476.453 196.74C471.435 197.745 470.624 198.556 469.619 203.575C468.613 198.556 467.803 197.745 462.785 196.74C467.803 195.734 468.613 194.923 469.619 189.904C470.624 194.923 471.435 195.734 476.453 196.74Z" fill="#EBDFFA"/>
<path opacity="0.49" d="M776.315 250.005C769.255 251.422 768.116 252.561 766.7 259.622C765.284 252.561 764.145 251.422 757.086 250.005C764.145 248.589 765.284 247.45 766.7 240.389C768.116 247.45 769.255 248.589 776.315 250.005Z" fill="#EBDFFA"/>
<path opacity="0.49" d="M821.513 104.063C811.098 106.146 809.416 107.829 807.333 118.246C805.25 107.829 803.567 106.146 793.152 104.063C803.567 101.979 805.25 100.296 807.333 89.8789C809.416 100.296 811.098 101.979 821.513 104.063Z" fill="#EBDFFA"/>
<path opacity="0.67" d="M577.401 89.9935C572.384 90.9993 571.574 91.8101 570.568 96.8288C569.563 91.8101 568.752 90.9993 563.734 89.9935C568.752 88.9877 569.563 88.1769 570.568 83.1582C571.574 88.1769 572.384 88.9877 577.401 89.9935Z" fill="#EBDFFA"/>
<path opacity="0.42" d="M1225.86 248.223C1215.22 250.347 1213.48 252.082 1211.36 262.724C1209.23 252.082 1207.5 250.347 1196.86 248.223C1207.5 246.098 1209.23 244.364 1211.36 233.721C1213.48 244.364 1215.22 246.098 1225.86 248.223Z" fill="#EBDFFA"/>
<path opacity="0.42" d="M1715.67 95.5771C1710.51 96.6035 1709.68 97.4451 1708.64 102.607C1707.62 97.4451 1706.77 96.6137 1701.61 95.5771C1706.77 94.5508 1707.61 93.7093 1708.64 88.5469C1709.67 93.7093 1710.51 94.5406 1715.67 95.5771Z" fill="#EBDFFA"/>
<path opacity="0.43" d="M479.254 97.5549C480.149 97.5549 480.875 96.829 480.875 95.9337C480.875 95.0383 480.149 94.3125 479.254 94.3125C478.359 94.3125 477.633 95.0383 477.633 95.9337C477.633 96.829 478.359 97.5549 479.254 97.5549Z" fill="#EBDFFA"/>
<path opacity="0.43" d="M1356.1 38.4103C1357 38.4103 1357.72 37.6845 1357.72 36.7891C1357.72 35.8938 1357 35.168 1356.1 35.168C1355.21 35.168 1354.48 35.8938 1354.48 36.7891C1354.48 37.6845 1355.21 38.4103 1356.1 38.4103Z" fill="#EBDFFA"/>
<path opacity="0.43" d="M790.765 360.098C791.661 360.098 792.387 359.372 792.387 358.477C792.387 357.581 791.661 356.855 790.765 356.855C789.87 356.855 789.145 357.581 789.145 358.477C789.145 359.372 789.87 360.098 790.765 360.098Z" fill="#EBDFFA"/>
<path opacity="0.43" d="M594.621 237.485C595.517 237.485 596.243 236.759 596.243 235.863C596.243 234.968 595.517 234.242 594.621 234.242C593.726 234.242 593 234.968 593 235.863C593 236.759 593.726 237.485 594.621 237.485Z" fill="#EBDFFA"/>
<path opacity="0.43" d="M1024.4 279.317C1025.29 279.317 1026.02 278.591 1026.02 277.695C1026.02 276.8 1025.29 276.074 1024.4 276.074C1023.5 276.074 1022.78 276.8 1022.78 277.695C1022.78 278.591 1023.5 279.317 1024.4 279.317Z" fill="#EBDFFA"/>
<path opacity="0.43" d="M590.305 525.99C591.2 525.99 591.926 525.265 591.926 524.369C591.926 523.474 591.2 522.748 590.305 522.748C589.409 522.748 588.684 523.474 588.684 524.369C588.684 525.265 589.409 525.99 590.305 525.99Z" fill="#EBDFFA"/>
<path opacity="0.43" d="M1337.36 302.399C1338.25 302.399 1338.98 301.673 1338.98 300.777C1338.98 299.882 1338.25 299.156 1337.36 299.156C1336.46 299.156 1335.74 299.882 1335.74 300.777C1335.74 301.673 1336.46 302.399 1337.36 302.399Z" fill="#EBDFFA"/>
<path opacity="0.43" d="M1569.55 188.438C1570.44 188.438 1571.17 187.712 1571.17 186.817C1571.17 185.921 1570.44 185.195 1569.55 185.195C1568.65 185.195 1567.93 185.921 1567.93 186.817C1567.93 187.712 1568.65 188.438 1569.55 188.438Z" fill="#EBDFFA"/>
</g>
</g>
<defs>
<linearGradient id="paint0_linear_3837_308927" x1="960.056" y1="535.632" x2="960.056" y2="-144.759" gradientUnits="userSpaceOnUse">
<stop offset="0.24" stop-color="#E4D7FC" stop-opacity="0"/>
<stop offset="0.29" stop-color="#E4D2FB" stop-opacity="0.19"/>
<stop offset="0.38" stop-color="#E4CCFA" stop-opacity="0.43"/>
<stop offset="0.45" stop-color="#E4C7FA" stop-opacity="0.64"/>
<stop offset="0.53" stop-color="#E4C3F9" stop-opacity="0.79"/>
<stop offset="0.59" stop-color="#E4C1F9" stop-opacity="0.91"/>
<stop offset="0.65" stop-color="#E4BFF9" stop-opacity="0.98"/>
<stop offset="0.7" stop-color="#E4BFF9"/>
</linearGradient>
<linearGradient id="paint1_linear_3837_308927" x1="1264.91" y1="859.363" x2="562.548" y2="584.098" gradientUnits="userSpaceOnUse">
<stop offset="0.06" stop-color="#EED4F4"/>
<stop offset="0.37" stop-color="#DFB4F8"/>
<stop offset="1" stop-color="#C19DF3"/>
</linearGradient>
<linearGradient id="paint2_linear_3837_308927" x1="1655.78" y1="595.75" x2="282.124" y2="1233.79" gradientUnits="userSpaceOnUse">
<stop offset="0.07" stop-color="#E3C0F9" stop-opacity="0.8"/>
<stop offset="0.13" stop-color="#E1BEF8" stop-opacity="0.78"/>
<stop offset="0.2" stop-color="#DEBBF8" stop-opacity="0.73"/>
<stop offset="0.27" stop-color="#D8B5F7" stop-opacity="0.64"/>
<stop offset="0.35" stop-color="#CFADF5" stop-opacity="0.52"/>
<stop offset="0.42" stop-color="#C5A3F4" stop-opacity="0.36"/>
<stop offset="0.49" stop-color="#B897F1" stop-opacity="0.17"/>
<stop offset="0.55" stop-color="#AD8DF0" stop-opacity="0"/>
</linearGradient>
<linearGradient id="paint3_linear_3837_308927" x1="1716.76" y1="1107.05" x2="1227.07" y2="309.239" gradientUnits="userSpaceOnUse">
<stop offset="0.13" stop-color="#FBC7D4" stop-opacity="0.9"/>
<stop offset="0.48" stop-color="#F1CDEC" stop-opacity="0.97"/>
<stop offset="0.7" stop-color="#ECD1F9"/>
</linearGradient>
<radialGradient id="paint4_radial_3837_308927" cx="0" cy="0" r="1" gradientUnits="userSpaceOnUse" gradientTransform="translate(1977.16 1058.31) scale(1155.23 1155.23)">
<stop offset="0.17" stop-color="#FBC7D4" stop-opacity="0"/>
<stop offset="0.26" stop-color="#FAC7D4" stop-opacity="0.02"/>
<stop offset="0.35" stop-color="#F9C9D7" stop-opacity="0.06"/>
<stop offset="0.44" stop-color="#F7CBDB" stop-opacity="0.14"/>
<stop offset="0.53" stop-color="#F5CFE1" stop-opacity="0.25"/>
<stop offset="0.61" stop-color="#F2D4E8" stop-opacity="0.39"/>
<stop offset="0.7" stop-color="#EEDAF2" stop-opacity="0.55"/>
<stop offset="0.76" stop-color="#EBDFFA" stop-opacity="0.7"/>
</radialGradient>
<linearGradient id="paint5_linear_3837_308927" x1="1662.15" y1="991.387" x2="120.105" y2="991.387" gradientUnits="userSpaceOnUse">
<stop offset="0.02" stop-color="#F0B3CD"/>
<stop offset="0.25" stop-color="#EAB8E1"/>
<stop offset="0.5" stop-color="#E5BDF2"/>
<stop offset="0.7" stop-color="#E4BFF9"/>
</linearGradient>
<linearGradient id="paint6_linear_3837_308927" x1="941.629" y1="652.618" x2="968.363" y2="1458.57" gradientUnits="userSpaceOnUse">
<stop offset="0.15" stop-color="#EBDFFA"/>
<stop offset="0.23" stop-color="#E9D8F9" stop-opacity="0.81"/>
<stop offset="0.34" stop-color="#E7D1F9" stop-opacity="0.56"/>
<stop offset="0.44" stop-color="#E6CAF9" stop-opacity="0.36"/>
<stop offset="0.54" stop-color="#E5C5F9" stop-opacity="0.21"/>
<stop offset="0.64" stop-color="#E4C1F9" stop-opacity="0.09"/>
<stop offset="0.72" stop-color="#E4BFF9" stop-opacity="0.02"/>
<stop offset="0.77" stop-color="#E4BFF9" stop-opacity="0"/>
</linearGradient>
<linearGradient id="paint7_linear_3837_308927" x1="956.05" y1="617.438" x2="956.05" y2="1368.63" gradientUnits="userSpaceOnUse">
<stop offset="0.24" stop-color="#E4D6FB" stop-opacity="0.03"/>
<stop offset="0.28" stop-color="#E4D1FB" stop-opacity="0.23"/>
<stop offset="0.31" stop-color="#E4CDFA" stop-opacity="0.42"/>
<stop offset="0.35" stop-color="#E4C9FA" stop-opacity="0.57"/>
<stop offset="0.39" stop-color="#E4C6F9" stop-opacity="0.71"/>
<stop offset="0.43" stop-color="#E4C3F9" stop-opacity="0.81"/>
<stop offset="0.48" stop-color="#E4C1F9" stop-opacity="0.9"/>
<stop offset="0.53" stop-color="#E4C0F9" stop-opacity="0.96"/>
<stop offset="0.6" stop-color="#E4BFF9" stop-opacity="0.99"/>
<stop offset="0.7" stop-color="#E4BFF9"/>
</linearGradient>
<linearGradient id="paint8_linear_3837_308927" x1="109.129" y1="715.474" x2="-59.7357" y2="451.116" gradientUnits="userSpaceOnUse">
<stop offset="0.11" stop-color="#FB2970"/>
<stop offset="0.23" stop-color="#FB3755"/>
<stop offset="0.43" stop-color="#FF6600"/>
<stop offset="0.71" stop-color="#FFC635"/>
<stop offset="0.99" stop-color="#FFEB49"/>
</linearGradient>
<linearGradient id="paint9_linear_3837_308927" x1="228.938" y1="641.246" x2="220.154" y2="632.293" gradientUnits="userSpaceOnUse">
<stop offset="0.43" stop-color="#FF6600"/>
<stop offset="0.55" stop-color="#FE6403"/>
<stop offset="0.65" stop-color="#FE5E0E"/>
<stop offset="0.75" stop-color="#FD5420"/>
<stop offset="0.85" stop-color="#FC463A"/>
<stop offset="0.94" stop-color="#FB345B"/>
<stop offset="1" stop-color="#FB2872"/>
</linearGradient>
<linearGradient id="paint10_linear_3837_308927" x1="161.397" y1="663.357" x2="113.426" y2="690.639" gradientUnits="userSpaceOnUse">
<stop offset="0.24" stop-color="#BE0449"/>
<stop offset="0.45" stop-color="#D20F56"/>
<stop offset="0.8" stop-color="#EF216A"/>
<stop offset="1" stop-color="#FB2872"/>
</linearGradient>
<linearGradient id="paint11_linear_3837_308927" x1="217.199" y1="672.185" x2="259.127" y2="692.776" gradientUnits="userSpaceOnUse">
<stop offset="0.01" stop-color="#BE0449"/>
<stop offset="0.28" stop-color="#D20F56"/>
<stop offset="0.74" stop-color="#EF216A"/>
<stop offset="1" stop-color="#FB2872"/>
</linearGradient>
<linearGradient id="paint12_linear_3837_308927" x1="84.8556" y1="653.448" x2="230.163" y2="653.786" gradientUnits="userSpaceOnUse">
<stop stop-color="#FF6600" stop-opacity="0"/>
<stop offset="0.1" stop-color="#FB2970" stop-opacity="0.1"/>
<stop offset="0.35" stop-color="#FF6600"/>
<stop offset="0.48" stop-color="#FF6600"/>
<stop offset="1" stop-color="#FF6600"/>
</linearGradient>
<radialGradient id="paint13_radial_3837_308927" cx="0" cy="0" r="1" gradientUnits="userSpaceOnUse" gradientTransform="translate(183.257 620.317) scale(61.1842 61.1842)">
<stop offset="0.28" stop-color="#FFEB49" stop-opacity="0.5"/>
<stop offset="0.58" stop-color="#FFEB49" stop-opacity="0.29"/>
<stop offset="0.73" stop-color="#FFEB49" stop-opacity="0.2"/>
<stop offset="0.83" stop-color="#FFEB49" stop-opacity="0.12"/>
<stop offset="0.94" stop-color="#FFEB49" stop-opacity="0"/>
</radialGradient>
<linearGradient id="paint14_linear_3837_308927" x1="180.756" y1="692.155" x2="181.909" y2="581.805" gradientUnits="userSpaceOnUse">
<stop offset="0.2" stop-color="#FB2872"/>
<stop offset="0.24" stop-color="#FC3D4B" stop-opacity="0.66"/>
<stop offset="0.29" stop-color="#FD5223" stop-opacity="0.31"/>
<stop offset="0.32" stop-color="#FE6009" stop-opacity="0.09"/>
<stop offset="0.33" stop-color="#FF6600" stop-opacity="0"/>
</linearGradient>
<linearGradient id="paint15_linear_3837_308927" x1="157.983" y1="661.88" x2="107.959" y2="673.42" gradientUnits="userSpaceOnUse">
<stop stop-color="#FA2771" stop-opacity="0.02"/>
<stop offset="0.1" stop-color="#F2256D" stop-opacity="0.25"/>
<stop offset="0.19" stop-color="#EB2369" stop-opacity="0.45"/>
<stop offset="0.28" stop-color="#E52266" stop-opacity="0.62"/>
<stop offset="0.38" stop-color="#E02164" stop-opacity="0.76"/>
<stop offset="0.48" stop-color="#DC2062" stop-opacity="0.87"/>
<stop offset="0.6" stop-color="#DA1F61" stop-opacity="0.94"/>
<stop offset="0.72" stop-color="#D81F60" stop-opacity="0.99"/>
<stop offset="0.88" stop-color="#D81F60"/>
</linearGradient>
<linearGradient id="paint16_linear_3837_308927" x1="236.231" y1="645.707" x2="234.02" y2="648.917" gradientUnits="userSpaceOnUse">
<stop offset="0.16" stop-color="#A030B9"/>
<stop offset="0.88" stop-color="#00073A"/>
</linearGradient>
<linearGradient id="paint17_linear_3837_308927" x1="210.201" y1="662.386" x2="247.898" y2="677.608" gradientUnits="userSpaceOnUse">
<stop stop-color="#FB2872" stop-opacity="0"/>
<stop offset="0.19" stop-color="#EF256C" stop-opacity="0.32"/>
<stop offset="0.41" stop-color="#E32165" stop-opacity="0.68"/>
<stop offset="0.57" stop-color="#DB1F61" stop-opacity="0.91"/>
<stop offset="0.65" stop-color="#D81F60"/>
</linearGradient>
<linearGradient id="paint18_linear_3837_308927" x1="227.758" y1="651.339" x2="222.53" y2="682.514" gradientUnits="userSpaceOnUse">
<stop stop-color="#FFEB49"/>
<stop offset="0.06" stop-color="#FED84C" stop-opacity="0.9"/>
<stop offset="0.21" stop-color="#FDAA56" stop-opacity="0.67"/>
<stop offset="0.35" stop-color="#FC825E" stop-opacity="0.46"/>
<stop offset="0.5" stop-color="#FC6265" stop-opacity="0.3"/>
<stop offset="0.64" stop-color="#FB486B" stop-opacity="0.17"/>
<stop offset="0.77" stop-color="#FB366E" stop-opacity="0.08"/>
<stop offset="0.89" stop-color="#FB2B71" stop-opacity="0.02"/>
<stop offset="1" stop-color="#FB2872" stop-opacity="0"/>
</linearGradient>
<linearGradient id="paint19_linear_3837_308927" x1="221.039" y1="642.091" x2="216.26" y2="630.101" gradientUnits="userSpaceOnUse">
<stop stop-color="#FF6600" stop-opacity="0"/>
<stop offset="0.19" stop-color="#FF6600" stop-opacity="0.31"/>
<stop offset="0.58" stop-color="#FF6600"/>
<stop offset="0.62" stop-color="#FE5B12"/>
<stop offset="0.74" stop-color="#FC453B"/>
<stop offset="0.85" stop-color="#FB3559"/>
<stop offset="0.94" stop-color="#FB2B6B"/>
<stop offset="1" stop-color="#FB2872"/>
</linearGradient>
<linearGradient id="paint20_linear_3837_308927" x1="186.716" y1="665.663" x2="181.445" y2="705.82" gradientUnits="userSpaceOnUse">
<stop stop-color="#FFEB49"/>
<stop offset="0.37" stop-color="#FFEB49" stop-opacity="0.59"/>
<stop offset="0.68" stop-color="#FFEB49" stop-opacity="0.27"/>
<stop offset="0.89" stop-color="#FFEB49" stop-opacity="0.08"/>
<stop offset="1" stop-color="#FFEB49" stop-opacity="0"/>
</linearGradient>
<radialGradient id="paint21_radial_3837_308927" cx="0" cy="0" r="1" gradientUnits="userSpaceOnUse" gradientTransform="translate(-112.811 281.225) scale(306.792 306.792)">
<stop offset="0.07" stop-color="#FB2872"/>
<stop offset="0.17" stop-color="#FB2872" stop-opacity="0.83"/>
<stop offset="0.34" stop-color="#FB2872" stop-opacity="0.58"/>
<stop offset="0.51" stop-color="#FB2872" stop-opacity="0.37"/>
<stop offset="0.66" stop-color="#FB2872" stop-opacity="0.21"/>
<stop offset="0.8" stop-color="#FB2872" stop-opacity="0.1"/>
<stop offset="0.91" stop-color="#FB2872" stop-opacity="0.03"/>
<stop offset="1" stop-color="#FB2872" stop-opacity="0"/>
</radialGradient>
<radialGradient id="paint22_radial_3837_308927" cx="0" cy="0" r="1" gradientUnits="userSpaceOnUse" gradientTransform="translate(80.6501 653.573) scale(118.728)">
<stop stop-color="#FB2872"/>
<stop offset="1" stop-color="#FB2872" stop-opacity="0.07"/>
</radialGradient>
<radialGradient id="paint23_radial_3837_308927" cx="0" cy="0" r="1" gradientUnits="userSpaceOnUse" gradientTransform="translate(-98.521 768.87) rotate(113.61) scale(24.254 36.9935)">
<stop stop-color="#FFEB49"/>
<stop offset="1" stop-color="#FFEB49" stop-opacity="0"/>
</radialGradient>
<radialGradient id="paint24_radial_3837_308927" cx="0" cy="0" r="1" gradientUnits="userSpaceOnUse" gradientTransform="translate(-112.813 281.223) scale(306.792 306.792)">
<stop offset="0.07" stop-color="#FB2872"/>
<stop offset="0.17" stop-color="#FB2872" stop-opacity="0.83"/>
<stop offset="0.34" stop-color="#FB2872" stop-opacity="0.58"/>
<stop offset="0.51" stop-color="#FB2872" stop-opacity="0.37"/>
<stop offset="0.66" stop-color="#FB2872" stop-opacity="0.21"/>
<stop offset="0.8" stop-color="#FB2872" stop-opacity="0.1"/>
<stop offset="0.91" stop-color="#FB2872" stop-opacity="0.03"/>
<stop offset="1" stop-color="#FB2872" stop-opacity="0"/>
</radialGradient>
<radialGradient id="paint25_radial_3837_308927" cx="0" cy="0" r="1" gradientUnits="userSpaceOnUse" gradientTransform="translate(-72.7094 806.906) rotate(113.61) scale(24.254 39.6883)">
<stop stop-color="#FFEB49"/>
<stop offset="1" stop-color="#FFEB49" stop-opacity="0"/>
</radialGradient>
<linearGradient id="paint26_linear_3837_308927" x1="-46.1602" y1="470.977" x2="-26.0606" y2="626.277" gradientUnits="userSpaceOnUse">
<stop stop-color="#FFEB49" stop-opacity="0.8"/>
<stop offset="0.91" stop-color="#FFEB49" stop-opacity="0"/>
</linearGradient>
<linearGradient id="paint27_linear_3837_308927" x1="949.776" y1="60.4205" x2="949.776" y2="1031.23" gradientUnits="userSpaceOnUse">
<stop stop-color="#3A0F6E" stop-opacity="0"/>
<stop offset="0.45" stop-color="#6D44B7" stop-opacity="0.5"/>
<stop offset="0.68" stop-color="#855CD9" stop-opacity="0.72"/>
<stop offset="0.7" stop-color="#855CDA" stop-opacity="0.74"/>
<stop offset="0.9" stop-color="#8D64E4" stop-opacity="0.93"/>
<stop offset="1" stop-color="#9168E9"/>
</linearGradient>
<linearGradient id="paint28_linear_3837_308927" x1="750.55" y1="-135.583" x2="1070.75" y2="1253.1" gradientUnits="userSpaceOnUse">
<stop stop-color="#9168E9"/>
<stop offset="0.02" stop-color="#8C63E2"/>
<stop offset="0.2" stop-color="#6F45B9"/>
<stop offset="0.38" stop-color="#582D98"/>
<stop offset="0.54" stop-color="#471C81"/>
<stop offset="0.7" stop-color="#3D1272"/>
<stop offset="0.83" stop-color="#3A0F6E"/>
</linearGradient>
<linearGradient id="paint29_linear_3837_308927" x1="1497.09" y1="126.854" x2="1510.62" y2="1551.64" gradientUnits="userSpaceOnUse">
<stop offset="0.09" stop-color="#8C87F0" stop-opacity="0.6"/>
<stop offset="0.56" stop-color="#523395" stop-opacity="0.18"/>
<stop offset="0.78" stop-color="#3A0F6E" stop-opacity="0"/>
</linearGradient>
<linearGradient id="paint30_linear_3837_308927" x1="1679.38" y1="1007.07" x2="97.1571" y2="1007.07" gradientUnits="userSpaceOnUse">
<stop offset="0.02" stop-color="#F0B3CD"/>
<stop offset="0.25" stop-color="#EAB8E1"/>
<stop offset="0.5" stop-color="#E5BDF2"/>
<stop offset="0.7" stop-color="#E4BFF9"/>
</linearGradient>
<linearGradient id="paint31_linear_3837_308927" x1="954.832" y1="699.006" x2="954.832" y2="1481.59" gradientUnits="userSpaceOnUse">
<stop offset="0.04" stop-color="#6959C1"/>
<stop offset="0.17" stop-color="#6148B4"/>
<stop offset="0.43" stop-color="#532B9D"/>
<stop offset="0.59" stop-color="#4E2095"/>
</linearGradient>
<linearGradient id="paint32_linear_3837_308927" x1="959.215" y1="878.706" x2="959.215" y2="1341.85" gradientUnits="userSpaceOnUse">
<stop stop-color="#210340" stop-opacity="0"/>
<stop offset="0.18" stop-color="#210340" stop-opacity="0.34"/>
<stop offset="0.42" stop-color="#210340" stop-opacity="0.7"/>
<stop offset="0.65" stop-color="#210340" stop-opacity="0.92"/>
<stop offset="0.85" stop-color="#210340"/>
</linearGradient>
<linearGradient id="paint33_linear_3837_308927" x1="122.045" y1="483.376" x2="187.075" y2="296.452" gradientUnits="userSpaceOnUse">
<stop stop-color="#E6E6E6"/>
<stop offset="0.16" stop-color="#C1AFE7"/>
<stop offset="0.33" stop-color="#9E7CE8"/>
<stop offset="0.41" stop-color="#9168E9"/>
<stop offset="0.5" stop-color="#9168E9" stop-opacity="0.74"/>
<stop offset="0.58" stop-color="#9168E9" stop-opacity="0.52"/>
<stop offset="0.66" stop-color="#9168E9" stop-opacity="0.33"/>
<stop offset="0.74" stop-color="#9168E9" stop-opacity="0.19"/>
<stop offset="0.82" stop-color="#9168E9" stop-opacity="0.08"/>
<stop offset="0.89" stop-color="#9168E9" stop-opacity="0.02"/>
<stop offset="0.95" stop-color="#9168E9" stop-opacity="0"/>
</linearGradient>
<linearGradient id="paint34_linear_3837_308927" x1="949.776" y1="-1.07363" x2="949.776" y2="969.731" gradientUnits="userSpaceOnUse">
<stop stop-color="#3A0F6E" stop-opacity="0"/>
<stop offset="0.45" stop-color="#6D44B7" stop-opacity="0.5"/>
<stop offset="0.68" stop-color="#855CD9" stop-opacity="0.72"/>
<stop offset="0.7" stop-color="#855CDA" stop-opacity="0.74"/>
<stop offset="0.9" stop-color="#8D64E4" stop-opacity="0.93"/>
<stop offset="1" stop-color="#9168E9"/>
</linearGradient>
<linearGradient id="paint35_linear_3837_308927" x1="750.55" y1="-197.075" x2="1070.75" y2="1191.61" gradientUnits="userSpaceOnUse">
<stop stop-color="#9168E9"/>
<stop offset="0.02" stop-color="#8C63E2"/>
<stop offset="0.2" stop-color="#6F45B9"/>
<stop offset="0.38" stop-color="#582D98"/>
<stop offset="0.54" stop-color="#471C81"/>
<stop offset="0.7" stop-color="#3D1272"/>
<stop offset="0.83" stop-color="#3A0F6E"/>
</linearGradient>
<linearGradient id="paint36_linear_3837_308927" x1="1497.09" y1="65.3598" x2="1510.62" y2="1490.15" gradientUnits="userSpaceOnUse">
<stop offset="0.09" stop-color="#8C87F0" stop-opacity="0.6"/>
<stop offset="0.56" stop-color="#523395" stop-opacity="0.18"/>
<stop offset="0.78" stop-color="#3A0F6E" stop-opacity="0"/>
</linearGradient>
<linearGradient id="paint37_linear_3837_308927" x1="1679.37" y1="945.571" x2="97.1571" y2="945.571" gradientUnits="userSpaceOnUse">
<stop offset="0.02" stop-color="#F0B3CD"/>
<stop offset="0.25" stop-color="#EAB8E1"/>
<stop offset="0.5" stop-color="#E5BDF2"/>
<stop offset="0.7" stop-color="#E4BFF9"/>
</linearGradient>
<linearGradient id="paint38_linear_3837_308927" x1="954.832" y1="637.512" x2="954.832" y2="1420.1" gradientUnits="userSpaceOnUse">
<stop offset="0.04" stop-color="#6959C1"/>
<stop offset="0.17" stop-color="#6148B4"/>
<stop offset="0.43" stop-color="#532B9D"/>
<stop offset="0.59" stop-color="#4E2095"/>
</linearGradient>
<linearGradient id="paint39_linear_3837_308927" x1="1742.52" y1="810.235" x2="1755.61" y2="702.209" gradientUnits="userSpaceOnUse">
<stop stop-color="#F14F00"/>
<stop offset="0.4" stop-color="#FA9F03"/>
<stop offset="0.63" stop-color="#F14F00"/>
<stop offset="1" stop-color="#ED0B5B"/>
</linearGradient>
<linearGradient id="paint40_linear_3837_308927" x1="1592.97" y1="866.101" x2="1993.46" y2="866.101" gradientUnits="userSpaceOnUse">
<stop stop-color="#FFBB0D"/>
<stop offset="0.06" stop-color="#FDAD0B"/>
<stop offset="0.41" stop-color="#F46903"/>
<stop offset="0.57" stop-color="#F14F00"/>
<stop offset="1" stop-color="#EE1D42"/>
</linearGradient>
<radialGradient id="paint41_radial_3837_308927" cx="0" cy="0" r="1" gradientUnits="userSpaceOnUse" gradientTransform="translate(1845.15 949.767) scale(81.0606 81.0606)">
<stop stop-color="#FC2A70"/>
<stop offset="1" stop-color="#FC2A70" stop-opacity="0"/>
</radialGradient>
<radialGradient id="paint42_radial_3837_308927" cx="0" cy="0" r="1" gradientUnits="userSpaceOnUse" gradientTransform="translate(1579.3 843.1) rotate(8.07) scale(153.983 73.205)">
<stop stop-color="#FFE546"/>
<stop offset="1" stop-color="#FFE546" stop-opacity="0"/>
</radialGradient>
<linearGradient id="paint43_linear_3837_308927" x1="1665.44" y1="855.83" x2="1751.77" y2="812.077" gradientUnits="userSpaceOnUse">
<stop stop-color="#FFD300"/>
<stop offset="0.08" stop-color="#FFD200" stop-opacity="0.98"/>
<stop offset="0.17" stop-color="#FFCF00" stop-opacity="0.94"/>
<stop offset="0.25" stop-color="#FFCA00" stop-opacity="0.86"/>
<stop offset="0.33" stop-color="#FFC300" stop-opacity="0.75"/>
<stop offset="0.42" stop-color="#FFBB00" stop-opacity="0.61"/>
<stop offset="0.5" stop-color="#FFB000" stop-opacity="0.43"/>
<stop offset="0.58" stop-color="#FFA400" stop-opacity="0.23"/>
<stop offset="0.66" stop-color="#FF9600" stop-opacity="0"/>
</linearGradient>
<linearGradient id="paint44_linear_3837_308927" x1="1754.4" y1="640.873" x2="1787.11" y2="1014.12" gradientUnits="userSpaceOnUse">
<stop offset="0.27" stop-color="#F14F00"/>
<stop offset="0.42" stop-color="#FA9F03"/>
<stop offset="0.48" stop-color="#F99602"/>
<stop offset="0.58" stop-color="#F68001"/>
<stop offset="0.69" stop-color="#F25B00"/>
<stop offset="0.73" stop-color="#F14F00"/>
<stop offset="0.86" stop-color="#ED0B5B"/>
</linearGradient>
<radialGradient id="paint45_radial_3837_308927" cx="0" cy="0" r="1" gradientTransform="matrix(-53.4764 -50.9605 60.5364 -78.3641 1843.34 925.406)" gradientUnits="userSpaceOnUse">
<stop offset="0.52" stop-color="#F68400" stop-opacity="0"/>
<stop offset="0.56" stop-color="#F68600" stop-opacity="0.04"/>
<stop offset="0.63" stop-color="#F68E00" stop-opacity="0.14"/>
<stop offset="0.72" stop-color="#F79B00" stop-opacity="0.31"/>
<stop offset="0.83" stop-color="#F9AC00" stop-opacity="0.55"/>
<stop offset="0.94" stop-color="#FBC200" stop-opacity="0.84"/>
<stop offset="1" stop-color="#FCCE00"/>
</radialGradient>
<linearGradient id="paint46_linear_3837_308927" x1="1732.89" y1="783.105" x2="1709.79" y2="834.112" gradientUnits="userSpaceOnUse">
<stop offset="0.1" stop-color="#FDE625"/>
<stop offset="0.49" stop-color="#FBA501" stop-opacity="0.6"/>
<stop offset="0.72" stop-color="#F57800" stop-opacity="0"/>
</linearGradient>
<linearGradient id="paint47_linear_3837_308927" x1="1759.71" y1="874.93" x2="1732.48" y2="955.828" gradientUnits="userSpaceOnUse">
<stop stop-color="#DB2355" stop-opacity="0"/>
<stop offset="0.47" stop-color="#DB2355"/>
<stop offset="0.72" stop-color="#BF1F58"/>
<stop offset="1" stop-color="#8A1652"/>
</linearGradient>
<linearGradient id="paint48_linear_3837_308927" x1="1792.14" y1="872.903" x2="1751.87" y2="955.459" gradientUnits="userSpaceOnUse">
<stop stop-color="#DB2355" stop-opacity="0"/>
<stop offset="0.54" stop-color="#DB2355"/>
<stop offset="0.71" stop-color="#BF1F58"/>
<stop offset="0.94" stop-color="#8A1652"/>
</linearGradient>
<linearGradient id="paint49_linear_3837_308927" x1="1826.04" y1="943.853" x2="1763.98" y2="943.216" gradientUnits="userSpaceOnUse">
<stop stop-color="#DB2355" stop-opacity="0"/>
<stop offset="0.3" stop-color="#DB2355"/>
<stop offset="0.59" stop-color="#BF1F58"/>
<stop offset="0.92" stop-color="#8A1652"/>
</linearGradient>
<radialGradient id="paint50_radial_3837_308927" cx="0" cy="0" r="1" gradientUnits="userSpaceOnUse" gradientTransform="translate(1850.42 943.618) scale(48.9705 48.9705)">
<stop stop-color="#FC2A70"/>
<stop offset="1" stop-color="#FC2A70" stop-opacity="0"/>
</radialGradient>
<radialGradient id="paint51_radial_3837_308927" cx="0" cy="0" r="1" gradientUnits="userSpaceOnUse" gradientTransform="translate(1878.83 863.455) rotate(33.07) scale(118.568 118.568)">
<stop stop-color="#FDE625"/>
<stop offset="0.36" stop-color="#FBA501" stop-opacity="0.6"/>
<stop offset="0.7" stop-color="#F57800" stop-opacity="0.28"/>
<stop offset="1" stop-color="#F14F00" stop-opacity="0"/>
</radialGradient>
<linearGradient id="paint52_linear_3837_308927" x1="1751.75" y1="837.744" x2="1755.8" y2="926.98" gradientUnits="userSpaceOnUse">
<stop stop-color="#FCCE00"/>
<stop offset="0.09" stop-color="#FCC800" stop-opacity="0.96"/>
<stop offset="0.24" stop-color="#FDC300" stop-opacity="0.84"/>
<stop offset="0.44" stop-color="#FBB300" stop-opacity="0.66"/>
<stop offset="0.67" stop-color="#FAA100" stop-opacity="0.4"/>
<stop offset="0.94" stop-color="#F78B00" stop-opacity="0.07"/>
<stop offset="1" stop-color="#F68400" stop-opacity="0"/>
</linearGradient>
<linearGradient id="paint53_linear_3837_308927" x1="1734.56" y1="769.245" x2="1730.8" y2="780.915" gradientUnits="userSpaceOnUse">
<stop stop-color="#904599"/>
<stop offset="0.88" stop-color="#0B1339"/>
</linearGradient>
<linearGradient id="paint54_linear_3837_308927" x1="959.215" y1="817.212" x2="959.215" y2="1280.36" gradientUnits="userSpaceOnUse">
<stop stop-color="#210340" stop-opacity="0"/>
<stop offset="0.18" stop-color="#210340" stop-opacity="0.34"/>
<stop offset="0.42" stop-color="#210340" stop-opacity="0.7"/>
<stop offset="0.65" stop-color="#210340" stop-opacity="0.92"/>
<stop offset="0.85" stop-color="#210340"/>
</linearGradient>
<linearGradient id="paint55_linear_3837_308927" x1="122.045" y1="421.884" x2="187.075" y2="234.96" gradientUnits="userSpaceOnUse">
<stop stop-color="#E6E6E6"/>
<stop offset="0.16" stop-color="#C1AFE7"/>
<stop offset="0.33" stop-color="#9E7CE8"/>
<stop offset="0.41" stop-color="#9168E9"/>
<stop offset="0.5" stop-color="#9168E9" stop-opacity="0.74"/>
<stop offset="0.58" stop-color="#9168E9" stop-opacity="0.52"/>
<stop offset="0.66" stop-color="#9168E9" stop-opacity="0.33"/>
<stop offset="0.74" stop-color="#9168E9" stop-opacity="0.19"/>
<stop offset="0.82" stop-color="#9168E9" stop-opacity="0.08"/>
<stop offset="0.89" stop-color="#9168E9" stop-opacity="0.02"/>
<stop offset="0.95" stop-color="#9168E9" stop-opacity="0"/>
</linearGradient>
<clipPath id="clip0_3837_308927">
<rect width="1920" height="1080" fill="white"/>
</clipPath>
<clipPath id="clip1_3837_308927">
<rect width="321.749" height="206.784" fill="white" transform="translate(1592.98 744.045)"/>
</clipPath>
</defs>
</svg>
